<svg width="54" height="44" viewBox="0 0 54 44" fill="none" xmlns="http://www.w3.org/2000/svg">
<g id="Group">
<g id="Layer_29">
<path id="Shape" fill-rule="evenodd" clip-rule="evenodd" d="M52.3073 4.1867C50.8172 1.98207 48.3283 0.662687 45.6673 0.666696H8.33398C3.91571 0.666696 0.333984 4.24842 0.333984 8.6667V35.3334C0.333984 39.7516 3.91571 43.3334 8.33398 43.3334H45.6673C50.0856 43.3334 53.6673 39.7516 53.6673 35.3334V8.6667C53.6709 7.07116 53.1973 5.51099 52.3073 4.1867ZM8.33398 6.00003H45.6673C46.4333 6.001 47.1618 6.33127 47.6673 6.9067L27.0007 18.9867L6.36065 6.88003C6.86481 6.32142 7.58151 6.00181 8.33398 6.00003ZM45.6673 38C47.1401 38 48.334 36.8061 48.334 35.3334V12.64L29.6673 23.5734C28.8571 24.0434 27.9373 24.2917 27.0007 24.2934C26.0664 24.2998 25.1468 24.0607 24.334 23.6L5.66732 12.64V35.3334C5.66732 36.8061 6.86123 38 8.33398 38H45.6673Z" fill="#CCCCCC"/>
</g>
</g>
</svg>
