<svg width="54" height="54" viewBox="0 0 54 54" fill="none" xmlns="http://www.w3.org/2000/svg">
<g id="Group">
<g id="Layer_26">
<path id="Shape" fill-rule="evenodd" clip-rule="evenodd" d="M40.334 13.6666C40.334 6.30285 34.3644 0.333313 27.0007 0.333313C19.6369 0.333313 13.6673 6.30285 13.6673 13.6666C13.6673 21.0304 19.6369 27 27.0007 27H24.334C11.0792 27 0.333984 37.7451 0.333984 51C0.333984 52.4727 1.52789 53.6666 3.00065 53.6666H51.0007C52.4734 53.6666 53.6673 52.4727 53.6673 51C53.6673 37.7451 42.9222 27 29.6673 27H27.0007C30.5369 27 33.9283 25.5952 36.4287 23.0947C38.9292 20.5943 40.334 17.2029 40.334 13.6666ZM24.334 32.3333C15.053 32.3309 7.17984 39.1475 5.85398 48.3333H48.1473C46.8215 39.1475 38.9483 32.3309 29.6673 32.3333H24.334ZM19.0007 13.6666C19.0007 18.0849 22.5824 21.6666 27.0007 21.6666C29.1224 21.6666 31.1572 20.8238 32.6575 19.3235C34.1578 17.8232 35.0006 15.7884 35.0006 13.6666C35.0006 9.24837 31.4189 5.66665 27.0007 5.66665C22.5824 5.66665 19.0007 9.24837 19.0007 13.6666Z" fill="#CCCCCC"/>
</g>
</g>
</svg>
