<svg width="54" height="54" viewBox="0 0 54 54" fill="none" xmlns="http://www.w3.org/2000/svg">
<g id="Group">
<g id="Layer_65">
<path id="Path" d="M52.8938 49.1067C53.3987 49.6074 53.6826 50.289 53.6826 51C53.6826 51.7111 53.3987 52.3927 52.8938 52.8934C52.3931 53.3982 51.7115 53.6822 51.0005 53.6822C50.2895 53.6822 49.6079 53.3982 49.1072 52.8934L27.0005 30.76L4.89382 52.8934C4.39311 53.3982 3.71152 53.6822 3.00049 53.6822C2.28945 53.6822 1.60787 53.3982 1.10715 52.8934C0.602321 52.3927 0.318359 51.7111 0.318359 51C0.318359 50.289 0.602321 49.6074 1.10715 49.1067L23.2405 27L1.10715 4.89336C0.430732 4.21694 0.166559 3.23103 0.414147 2.30702C0.661735 1.38301 1.38347 0.661273 2.30748 0.413685C3.23149 0.166097 4.2174 0.43027 4.89382 1.10669L27.0005 23.24L49.1072 1.10669C50.1528 0.0610338 51.8482 0.0610338 52.8938 1.10669C53.9395 2.15235 53.9395 3.8477 52.8938 4.89336L30.7605 27L52.8938 49.1067Z" fill="#231F20"/>
</g>
</g>
</svg>
