<?xml version="1.0" encoding="UTF-8" standalone="no"?>
<!-- Created with Inkscape (http://www.inkscape.org/) -->

<svg
   version="1.1"
   id="svg1"
   width="1358"
   height="696"
   viewBox="0 0 1358 696"
   sodipodi:docname="logocaixinhabranco.svg"
   inkscape:version="1.2.1 (9c6d41e410, 2022-07-14)"
   xmlns:inkscape="http://www.inkscape.org/namespaces/inkscape"
   xmlns:sodipodi="http://sodipodi.sourceforge.net/DTD/sodipodi-0.dtd"
   xmlns="http://www.w3.org/2000/svg"
   xmlns:svg="http://www.w3.org/2000/svg">
  <defs
     id="defs1" />
  <sodipodi:namedview
     id="namedview1"
     pagecolor="#ffffff"
     bordercolor="#000000"
     borderopacity="0.25"
     inkscape:showpageshadow="2"
     inkscape:pageopacity="0.0"
     inkscape:pagecheckerboard="0"
     inkscape:deskcolor="#d1d1d1"
     inkscape:zoom="0.405"
     inkscape:cx="569.1358"
     inkscape:cy="348.14815"
     inkscape:window-width="1366"
     inkscape:window-height="705"
     inkscape:window-x="-8"
     inkscape:window-y="-8"
     inkscape:window-maximized="1"
     inkscape:current-layer="g1"
     showgrid="false" />
  <g
     inkscape:groupmode="layer"
     inkscape:label="Image"
     id="g1">
    <path
       style="fill:#ffffff;fill-opacity:1"
       d="m 323.41454,640.1006 c -2.24701,-1.02052 -13.27201,-7.15028 -24.5,-13.62169 C 287.68654,620.00749 270.4,609.97922 260.5,604.19385 c -9.9,-5.78536 -24.75,-14.41167 -33,-19.16957 -8.25,-4.7579 -23.325,-13.50701 -33.5,-19.44248 -10.175,-5.93547 -21.425,-12.49232 -25,-14.57079 -3.575,-2.07847 -10.775,-6.26341 -16,-9.29986 -5.225,-3.03646 -23.675,-13.72224 -41,-23.74618 -17.325,-10.02394 -33.000812,-19.34389 -34.835139,-20.71099 -1.834326,-1.3671 -4.195144,-3.89602 -5.246262,-5.61981 L 70.007476,488.5 70.003738,344.8151 c -0.0021,-80.62375 0.383553,-144.70096 0.878705,-146 0.485344,-1.27331 2.11224,-3.54313 3.615326,-5.04406 1.503086,-1.50093 4.593486,-3.77902 6.867557,-5.06241 C 83.639397,187.42523 99.45,178.35106 116.5,168.5438 c 17.05,-9.80726 36.85,-21.21444 44,-25.34928 7.15,-4.13484 17.22877,-9.96065 22.39727,-12.94625 5.1685,-2.98559 11.97417,-6.73783 15.12371,-8.33831 3.14954,-1.60048 6.95133,-2.90996 8.44843,-2.90996 1.4971,0 3.96794,0.73599 5.49074,1.63553 1.5228,0.89954 3.95473,3.46462 5.40429,5.70017 1.44956,2.23555 2.63556,5.14405 2.63556,6.46334 0,1.31929 -0.7359,3.94949 -1.63533,5.8449 -0.89943,1.89541 -3.48693,4.71394 -5.75,6.2634 -2.26307,1.54947 -11.76467,7.21631 -21.11467,12.59298 -9.35,5.37666 -21.95,12.56395 -28,15.97175 -6.05,3.4078 -18.65,10.62075 -28,16.02878 -9.35,5.40804 -21.7792,12.47468 -27.62045,15.70366 l -10.620441,5.87088 -0.04252,132.69067 c -0.02621,81.79756 0.321139,133.37017 0.905629,134.4623 0.521484,0.9744 1.334273,1.77164 1.8062,1.77164 0.471922,0 6.193592,3.07914 12.714812,6.84253 6.52122,3.7634 20.63177,11.93706 31.35677,18.16371 10.725,6.22664 28.39341,16.42144 39.26312,22.6551 10.86972,6.23366 23.01972,13.28634 27,15.67262 3.98029,2.38628 9.93688,5.84119 13.23688,7.67757 3.3,1.83639 13.54917,7.76004 22.77593,13.16368 9.22677,5.40363 17.0323,9.82479 17.34563,9.82479 0.31334,0 1.76417,0.84112 3.22407,1.86916 1.4599,1.02804 7.15437,4.47794 12.65437,7.66644 5.5,3.1885 14.5,8.35307 20,11.47683 5.5,3.12376 13.97299,7.99886 18.82887,10.83356 4.85587,2.83471 9.47338,5.15401 10.26112,5.15401 0.78774,0 6.93975,-3.29313 13.67114,-7.31806 6.73138,-4.02493 18.76387,-11.07848 26.73887,-15.67456 7.975,-4.59608 17.76777,-10.31081 21.7617,-12.69938 3.99394,-2.38858 15.69394,-9.21162 26,-15.16231 10.30607,-5.95069 29.0883,-16.80983 41.7383,-24.13143 12.65,-7.3216 28.85,-16.7883 36,-21.03712 7.15,-4.24881 19.075,-11.22646 26.5,-15.50589 7.425,-4.27942 18.225,-10.46254 24,-13.74026 5.775,-3.27773 11.2875,-6.65283 12.25,-7.50023 L 559,476.69002 V 352.34501 c 0,-68.38975 -0.3375,-124.34333 -0.75,-124.34127 -0.4125,0.002 -2.325,0.96796 -4.25,2.14645 -1.925,1.17849 -10.925,6.41352 -20,11.6334 -9.075,5.21987 -17.85,10.26958 -19.5,11.22158 -1.65,0.95199 -15.15,8.70731 -30,17.23405 -14.85,8.52674 -32.175,18.53788 -38.5,22.24697 -6.325,3.70909 -23.425,13.61371 -38,22.01028 -14.575,8.39656 -31.675,18.30599 -38,22.02096 -6.325,3.71497 -17.35,10.00983 -24.5,13.98858 -7.15,3.97874 -13.97947,7.5374 -15.1766,7.90813 -1.20523,0.37323 -3.72192,0.0284 -5.6393,-0.77277 -1.90448,-0.79574 -16.90001,-9.19152 -33.3234,-18.65728 -16.42338,-9.46576 -37.7357,-21.74077 -47.3607,-27.2778 -9.625,-5.53703 -32.8,-18.9081 -51.5,-29.71347 -18.7,-10.80538 -42.1,-24.30377 -52,-29.99642 -9.9,-5.69265 -19.91192,-11.64186 -22.2487,-13.22048 -2.33679,-1.57862 -4.92429,-4.17665 -5.75,-5.77341 -0.82572,-1.59675 -1.5013,-4.43399 -1.5013,-6.30497 0,-1.87097 1.01844,-4.93082 2.2632,-6.79966 1.24475,-1.86883 3.96432,-4.23179 6.04348,-5.25101 2.52204,-1.23633 4.84757,-1.65094 6.98681,-1.24567 1.76358,0.3341 11.08151,5.02406 20.70651,10.42213 9.625,5.39807 32.575,18.51145 51,29.14084 18.425,10.6294 55.31237,31.93123 81.97193,47.33741 l 48.47193,28.01123 4.52807,-2.47548 c 2.49044,-1.36151 10.15307,-5.75499 17.02807,-9.76327 6.875,-4.00829 19.7,-11.45126 28.5,-16.53994 8.8,-5.08868 20.5,-11.86378 26,-15.05578 5.5,-3.19199 18.325,-10.61859 28.5,-16.50353 10.175,-5.88495 27.275,-15.77481 38,-21.97747 10.725,-6.20266 30.075,-17.37368 43,-24.82449 12.925,-7.4508 25.18379,-14.47525 27.24175,-15.60989 2.05796,-1.13463 3.74546,-2.31524 3.75,-2.62359 0.005,-0.30834 -14.72925,-9.04883 -32.74175,-19.4233 -18.0125,-10.37447 -40.55098,-23.39719 -50.08551,-28.93938 -9.53454,-5.54218 -18.8076,-11.49828 -20.60682,-13.23577 -1.79922,-1.73749 -3.53897,-4.49743 -3.86613,-6.1332 -0.32715,-1.63577 -0.15565,-4.56467 0.38111,-6.50866 0.53676,-1.94399 2.55566,-4.92155 4.48644,-6.61679 2.84919,-2.50163 4.39001,-3.08227 8.1793,-3.08227 4.03069,0 6.58861,1.11623 18.71521,8.16699 7.72552,4.49184 19.2214,11.18877 25.5464,14.88206 6.325,3.69329 23.65,13.81325 38.5,22.4888 14.85,8.67556 31.275,18.40779 36.5,21.6272 5.225,3.2194 10.47716,6.68032 11.67148,7.69091 1.19431,1.0106 3.10513,3.36894 4.24626,5.24075 l 2.07478,3.40329 0.004,140.80718 c 0.003,101.09651 -0.31391,142.06867 -1.12258,145.2802 -0.79034,3.13874 -2.25532,5.43347 -4.91116,7.69282 -2.08167,1.77089 -24.82688,15.3698 -50.54491,30.2198 -25.71804,14.85 -49.49551,28.53219 -52.83884,30.40487 -3.34332,1.87268 -16.87877,9.68371 -30.07877,17.35784 -13.2,7.67414 -26.025,15.08948 -28.5,16.47854 -2.475,1.38906 -8.55,4.87954 -13.5,7.75661 -4.95,2.87708 -14.4,8.38485 -21,12.23949 -6.6,3.85464 -13.575,7.86498 -15.5,8.91186 -1.925,1.04689 -8.9,5.09703 -15.5,9.00033 -6.6,3.9033 -14.65085,8.50396 -17.89077,10.22369 -3.23992,1.71972 -6.61492,3.11689 -7.5,3.10481 -0.88508,-0.0121 -3.44769,-0.85693 -5.69469,-1.87744 z m 347.81224,1.03956 c -0.77922,-0.48158 -1.13833,-39.75463 -1.25418,-137.15748 -0.0893,-75.06547 -0.11965,-208.32204 -0.0675,-296.12569 0.088,-148.154412 0.21505,-159.689131 1.76492,-160.283871 0.92221,-0.353886 2.02811,-0.06595 2.46967,0.643011 0.43979,0.706129 0.9098,67.43387 1.04447,148.28387 0.13467,80.85 0.23077,157.35 0.21355,170 -0.0172,12.65 -0.11376,79.53936 -0.21453,148.64301 -0.15165,103.9978 -0.41418,125.73164 -1.52389,126.15748 -0.73738,0.28296 -1.83202,0.21081 -2.43254,-0.16033 z M 323,592.95752 c -0.825,-0.50867 -12.75,-7.3867 -26.5,-15.28449 -13.75,-7.8978 -28.15,-16.15637 -32,-18.35237 -3.85,-2.19601 -14.65,-8.41824 -24,-13.82717 -9.35,-5.40893 -28.7,-16.57522 -43,-24.81396 -14.3,-8.23874 -31.175,-17.96802 -37.5,-21.62062 -6.325,-3.6526 -18.85952,-10.89416 -27.85449,-16.09237 -10.13043,-5.85439 -17.17101,-10.5959 -18.5,-12.45891 L 111.5,467.5 111.19816,419 c -0.16602,-26.675 -0.0211,-50.44494 0.32208,-52.82208 0.46532,-3.2234 1.62241,-5.32057 4.55184,-8.25 3.36949,-3.36949 4.54785,-3.92792 8.28837,-3.92792 2.9595,0 5.50223,0.77483 7.91421,2.41164 1.95457,1.32641 7.07987,5.1989 11.38955,8.60554 4.30968,3.40665 12.78579,9.48936 18.83579,13.51716 6.05,4.02779 17.975,10.92903 26.5,15.33609 8.525,4.40706 20.675,10.08188 27,12.61072 6.325,2.52884 16.56588,5.95604 22.75751,7.61601 6.19163,1.65996 16.31663,3.90537 22.5,4.9898 6.49317,1.13875 18.63526,2.22991 28.74249,2.58297 11.25981,0.39331 21.24411,0.17893 28,-0.60122 5.775,-0.66688 15,-2.28162 20.5,-3.58832 5.5,-1.3067 14.5,-4.16058 20,-6.34195 5.5,-2.18137 14.5,-5.97439 20,-8.42894 5.5,-2.45455 17.15199,-7.69411 25.8933,-11.64345 8.74132,-3.94935 20.66632,-9.23652 26.5,-11.74928 5.83369,-2.51276 18.4817,-7.22798 28.1067,-10.47828 9.625,-3.25029 19.975,-6.55074 23,-7.33433 3.025,-0.78359 10,-2.15452 15.5,-3.04652 5.5,-0.892 15.58787,-2.2102 22.41749,-2.92932 8.76448,-0.92286 13.32432,-1.00577 15.5,-0.28185 1.69538,0.56411 4.37543,2.20193 5.95567,3.63959 1.58024,1.43767 3.49274,4.06199 4.25,5.83182 1.10635,2.58571 1.37684,12.80498 1.37684,52.01787 v 48.79998 l -2.50957,3.69316 c -1.5186,2.23483 -5.36863,5.35715 -9.75,7.90711 -3.98224,2.31767 -11.96543,7.0018 -17.74043,10.40917 -5.775,3.40737 -19.725,11.5043 -31,17.99318 -11.275,6.48887 -24.55,14.13157 -29.5,16.98377 -4.95,2.8522 -15.975,9.21052 -24.5,14.12959 -8.525,4.91907 -27.875,16.08932 -43,24.82278 -15.125,8.73345 -34.00109,19.62447 -41.94687,24.20226 -11.80908,6.80355 -15.18691,8.31251 -18.5,8.26444 -2.22922,-0.0323 -4.72813,-0.47499 -5.55313,-0.98367 z m 503.88228,-11.274 c -1.98974,-0.74629 -5.24449,-2.36229 -7.23278,-3.59112 -1.98828,-1.22883 -5.22713,-4.11482 -7.19744,-6.41332 -1.97031,-2.29849 -5.1284,-7.32908 -7.01797,-11.17908 -1.88958,-3.85 -4.34919,-10.6 -5.4658,-15 -1.11662,-4.4 -2.69128,-13.62224 -3.49925,-20.49387 C 795.62657,517.84113 795,503.68122 795,491.80734 c 0,-12.75754 0.58651,-25.23468 1.52801,-32.50612 0.8404,-6.49067 2.42966,-15.12071 3.53168,-19.17786 1.10202,-4.05715 3.61148,-10.67389 5.57658,-14.70386 2.37097,-4.86231 5.3877,-9.04357 8.96756,-12.42925 2.96706,-2.80612 7.53249,-6.08711 10.14541,-7.29109 3.76795,-1.7362 6.61263,-2.1901 13.75076,-2.19411 7.97474,-0.004 9.65851,0.32861 14.78059,2.92394 3.17932,1.61095 7.75661,5.04153 10.17175,7.62351 2.41514,2.58198 5.72486,7.33893 7.35493,10.571 1.63008,3.23208 3.87125,9.0265 4.98039,12.8765 1.10914,3.85 2.51645,9.925 3.12735,13.5 0.61089,3.575 1.55124,10.55 2.08965,15.5 0.53841,4.95 0.98262,12.88936 0.98714,17.64301 0.006,6.01681 -0.37162,8.77813 -1.2418,9.0877 -0.6875,0.24458 -5.57299,0.24187 -10.85664,-0.006 l -9.60664,-0.45071 -0.68126,-14.13699 c -0.37469,-7.77534 -1.36566,-18.80333 -2.20216,-24.50664 -0.83649,-5.7033 -2.39092,-12.6783 -3.45429,-15.5 -1.06336,-2.82169 -2.83279,-6.59696 -3.93206,-8.38949 -1.09927,-1.79253 -3.46528,-4.15334 -5.25781,-5.24626 -1.79253,-1.09292 -4.28609,-1.98881 -5.54126,-1.99086 -1.25516,-0.002 -3.81476,0.63664 -5.688,1.41933 -1.87323,0.78268 -4.78556,3.32767 -6.47185,5.65552 -1.68628,2.32785 -3.93706,7.19997 -5.00173,10.82693 -1.06466,3.62696 -2.42683,9.96948 -3.02703,14.09448 -0.60021,4.125 -1.3602,16.5 -1.68887,27.5 -0.34754,11.63165 -0.12391,26.40923 0.53447,35.3178 0.62262,8.42478 1.85715,18.54978 2.7434,22.5 0.88624,3.95021 2.70754,9.52393 4.04732,12.38604 1.33979,2.86211 3.79765,6.34961 5.46192,7.75 1.66427,1.40039 4.00391,2.59948 5.19922,2.66464 1.1953,0.0652 2.62327,0.10409 3.17327,0.0865 0.55,-0.0176 2.67425,-0.31382 4.72056,-0.65827 2.04631,-0.34446 5.14697,-1.82652 6.89036,-3.29349 1.74339,-1.46696 4.44133,-5.35586 5.99543,-8.642 1.55409,-3.28614 3.11703,-7.91799 3.47318,-10.293 L 860.22709,536 h 10.88645 c 9.71798,0 10.88646,0.18859 10.88646,1.75703 0,0.96637 -1.05561,5.57887 -2.34579,10.25 -1.29019,4.67113 -3.56834,10.89607 -5.06256,13.83318 -1.49422,2.93712 -4.4815,7.25472 -6.63839,9.59467 -2.45359,2.66183 -6.61479,5.49582 -11.11597,7.57055 -6.22957,2.87139 -8.47791,3.36429 -16.76582,3.67554 -6.42617,0.24132 -10.76029,-0.0865 -13.18919,-0.99745 z m 128.70845,-1.25678 c -2.1501,-0.78778 -5.42214,-2.58625 -7.2712,-3.99659 -1.92838,-1.47085 -4.77469,-5.41393 -6.6751,-9.24721 -1.82225,-3.67562 -4.81557,-10.90834 -6.65183,-16.07273 -2.36306,-6.64596 -4.41171,-10.51779 -7.01079,-13.25 C 925.96213,535.7371 923.565,534 922.65484,534 921.17514,534 921,535.9432 921,552.36043 c 0,10.09823 -0.28617,20.44823 -0.63592,23 L 919.72815,580 H 908.86408 898 v -86.89301 c 0,-73.60978 0.21429,-86.97524 1.40178,-87.43093 0.77098,-0.29585 5.11831,-1.08134 9.66074,-1.74553 4.96319,-0.72571 13.08323,-0.98904 20.34822,-0.65989 9.10125,0.41236 14.06656,1.18214 20.08926,3.11449 4.4,1.41171 10.36845,4.16853 13.26321,6.12627 2.89477,1.95774 7.26315,6.10766 9.70752,9.22204 2.44437,3.11438 5.55932,8.67062 6.9221,12.34721 1.36278,3.67659 3.22043,10.225 4.1281,14.55203 0.97575,4.65152 1.67239,12.77237 1.7043,19.86732 0.0336,7.47601 -0.54848,14.75535 -1.54405,19.30863 -0.87892,4.01975 -3.22132,10.68359 -5.20534,14.80853 -2.40921,5.00895 -5.66129,9.59385 -9.79157,13.80451 -4.07849,4.15784 -8.65294,7.54726 -13.43427,9.95404 -3.9875,2.00719 -7.25,3.97407 -7.25,4.37086 0,0.39678 2.10366,6.0157 4.6748,12.48649 2.57114,6.47079 5.51367,12.66549 6.53896,13.76601 1.02528,1.10051 3.0595,2.00093 4.52048,2.00093 1.48641,0 3.83132,-1.12572 5.32418,-2.55597 l 2.66786,-2.55597 6.38686,6.63481 c 3.51277,3.64915 6.52748,7.02121 6.69936,7.49347 0.17187,0.47227 -1.5542,2.72536 -3.83572,5.00688 -2.28152,2.28152 -6.47214,5.23025 -9.3125,6.55273 -2.84035,1.32248 -6.73928,2.3772 -8.66428,2.34382 -1.925,-0.0334 -5.25917,-0.70524 -7.40927,-1.49303 z m -24.39621,-69.43462 c 3.68199,-0.53255 9.08199,-2.02779 12,-3.32275 2.91802,-1.29497 6.7901,-3.60895 8.60464,-5.14219 1.81454,-1.53324 4.3689,-4.89871 5.67634,-7.47884 1.30745,-2.58013 3.08533,-7.42396 3.95084,-10.76408 0.86551,-3.34012 1.57366,-9.68091 1.57366,-14.09064 0,-4.40972 -0.6401,-11.3632 -1.42245,-15.45217 -0.78235,-4.08897 -2.09804,-9.05139 -2.92375,-11.02759 -0.8257,-1.9762 -3.34593,-5.59429 -5.60049,-8.0402 -2.34163,-2.54036 -6.34037,-5.41227 -9.32626,-6.69815 -3.55592,-1.53135 -8.0245,-2.41119 -13.97705,-2.75197 L 921,425.72259 V 468.86129 512 l 1.75,-0.0198 c 0.9625,-0.0109 4.76254,-0.45553 8.44452,-0.98807 z m 63.19008,67.56774 c -0.30395,-0.79208 -0.35942,-27.45458 -0.12327,-59.25 0.34816,-46.87528 0.7322,-59.60676 2.03039,-67.30986 0.88057,-5.225 2.5764,-12.65 3.76848,-16.5 1.1922,-3.85 3.2787,-9.19631 4.6367,-11.88069 1.3581,-2.68438 4.6194,-7.03089 7.2475,-9.65892 2.628,-2.62802 6.6202,-5.71794 8.8715,-6.86648 2.2514,-1.14854 7.1916,-2.52768 10.9785,-3.06474 4.2509,-0.60289 9.011,-0.63047 12.4419,-0.0721 3.0563,0.49742 7.7589,2.02029 10.4504,3.38416 2.6915,1.36388 6.7625,4.50728 9.0467,6.98535 2.2842,2.47807 5.478,7.13084 7.0974,10.33949 1.6194,3.20866 3.6707,8.28075 4.5585,11.27132 0.8878,2.99057 2.2711,9.29057 3.0741,14 0.8029,4.70943 1.9253,14.8626 2.4942,22.5626 0.5688,7.7 1.0361,35.05224 1.0383,60.78275 v 46.78275 l -11.25,-0.28275 L 1059.5,579.5 1059.2301,558.25 1058.9602,537 H 1037.9801 1017 l -0.1454,11.75 c -0.08,6.4625 -0.036,13.2904 0.098,15.17312 0.1338,1.88272 -0.062,6.27022 -0.4342,9.75 L 1015.8408,580 h -10.4518 c -8.17489,0 -10.57216,-0.31373 -11.0044,-1.44014 z M 1058.7062,489.25 c -0.349,-15.99242 -1.1914,-30.6019 -2.0947,-36.32822 -0.8311,-5.26802 -2.4674,-12.13423 -3.6362,-15.25825 -1.1688,-3.12402 -3.571,-7.21302 -5.338,-9.08666 -2.012,-2.13335 -4.5979,-3.66646 -6.9185,-4.10181 -2.0381,-0.38234 -4.9359,-0.38641 -6.4394,-0.009 -1.5036,0.37737 -4.4112,2.44946 -6.4614,4.60463 -2.6847,2.82225 -4.4072,6.08815 -6.157,11.67392 -1.3362,4.26549 -2.9232,12.25543 -3.5266,17.75543 -0.6034,5.5 -1.1357,20.35 -1.1829,33 -0.047,12.65 -0.056,23.3375 -0.019,23.75 0.037,0.4125 9.5824,0.75 21.2122,0.75 h 21.145 z m 40.7673,89.53402 C 1099.2041,578.07781 1099.0998,539.025 1099.2418,492 l 0.2582,-85.5 43.7839,-0.26054 43.784,-0.26053 -0.284,10.76053 -0.2839,10.76054 -32,0.5 -32,0.5 -0.262,37.75 -0.2621,37.75 h 27.993 27.993 l 0.5767,2.29761 c 0.3171,1.26368 0.4382,6.10118 0.269,10.75 L 1178.5,525.5 l -28.2337,0.26555 -28.2337,0.26554 -0.2663,26.73446 -0.2663,26.73445 -10.7683,0.28402 c -8.0567,0.21249 -10.8917,-0.0393 -11.2582,-1 z m 124.1932,0.54931 C 1223.3,578.96667 1223,544.54167 1223,502.83333 V 427 h -15.893 c -13.5699,0 -15.9817,-0.23122 -16.5,-1.58179 -0.3339,-0.86998 -0.607,-5.59498 -0.607,-10.5 V 406 h 44 44 v 10.47523 10.47523 l -16.25,0.27477 -16.25,0.27477 -0.2562,76.25 -0.2563,76.25 h -10.3271 c -5.6799,0 -10.6271,-0.3 -10.9937,-0.66667 z M 803.5,358.16573 795.5,356.5 794.7706,343 c -0.40117,-7.425 -0.53637,-31.05 -0.30043,-52.5 0.23593,-21.45 0.45167,-70.78655 0.4794,-109.63677 L 795,110.22646 l 6.75,-1.36323 C 806.43839,107.91636 816.59372,107.5 835,107.5 c 21.86039,0 27.82067,0.31028 34.04327,1.77222 4.1488,0.97472 10.2238,3.04096 13.5,4.59165 3.2762,1.55069 8.53266,5.17527 11.68102,8.05463 3.14836,2.87936 7.74305,8.27183 10.21041,11.98327 2.49779,3.75722 5.81317,10.70908 7.48025,15.685 1.64678,4.9153 3.6896,14.24213 4.5396,20.72628 0.85,6.48416 1.54536,17.05384 1.54525,23.48817 -1.1e-4,6.93563 -0.81249,16.67728 -1.99528,23.92649 -1.0973,6.72524 -3.19941,15.27524 -4.67136,19 -1.47194,3.72476 -4.21969,9.24729 -6.1061,12.27229 -1.88641,3.025 -5.26865,7.40307 -7.51608,9.72903 -2.24743,2.32597 -3.88931,4.39055 -3.64861,4.58795 0.2407,0.1974 2.53484,1.77574 5.0981,3.50741 2.56327,1.73168 6.2437,4.99813 8.17874,7.2588 1.93504,2.26066 4.61498,6.42926 5.95543,9.26355 1.34044,2.83429 2.94751,7.53791 3.57126,10.45248 0.62376,2.91457 1.12745,8.76457 1.11932,13 -0.008,4.23543 -0.67992,10.5219 -1.49286,13.96994 -0.81295,3.44803 -2.60546,8.49392 -3.98336,11.21308 -1.3779,2.71916 -3.86855,6.49661 -5.53477,8.39433 -1.66622,1.89772 -5.15456,4.80825 -7.75186,6.46783 -2.5973,1.65959 -7.19737,3.92238 -10.22237,5.02843 -3.025,1.10605 -8.30186,2.7217 -11.72637,3.59034 -3.4245,0.86863 -10.8495,2.23653 -16.5,3.03976 -6.37639,0.90643 -17.67083,1.43541 -29.77363,1.39448 -14.10754,-0.0477 -21.71229,-0.52659 -27.5,-1.73168 z m 54,-29.16291 c 3.85,-0.56783 9.90872,-2.03826 13.46382,-3.26762 3.86352,-1.33601 7.94514,-3.6432 10.1461,-5.7352 2.32147,-2.20655 4.13838,-5.16301 4.91644,-8 0.92844,-3.3853 0.96567,-5.80802 0.1503,-9.78045 -0.59611,-2.90425 -2.04536,-6.63079 -3.22055,-8.28119 -1.1752,-1.65041 -4.89158,-4.39139 -8.25864,-6.09108 -3.36705,-1.69968 -10.13115,-3.91174 -15.03132,-4.91568 -4.90018,-1.00394 -14.25468,-2.138 -20.78778,-2.52014 L 827,279.71667 l -0.10911,1.89167 c -0.06,1.04041 -0.26186,12.45441 -0.44856,25.36443 -0.18993,13.13266 0.0544,23.7162 0.55468,24.02538 0.49178,0.30394 5.98113,0.21162 12.19857,-0.20515 6.21743,-0.41677 14.45442,-1.22235 18.30442,-1.79018 z m -7.25585,-80.93738 c 4.16024,-1.06402 9.84061,-3.08818 12.62305,-4.49814 2.78243,-1.40997 6.65853,-3.96801 8.61355,-5.68454 1.95502,-1.71653 5.09453,-5.87987 6.97669,-9.25186 1.88217,-3.372 4.44719,-9.7309 5.70006,-14.1309 1.92827,-6.77201 2.27806,-10.37924 2.27877,-23.5 7e-4,-12.96503 -0.36948,-16.87379 -2.26347,-23.89999 -1.24536,-4.62 -3.39437,-10.32832 -4.77556,-12.68515 -1.3812,-2.35684 -4.26534,-5.86985 -6.4092,-7.8067 -2.14385,-1.93684 -5.70403,-4.44295 -7.9115,-5.56911 -2.20747,-1.12617 -6.84024,-2.71401 -10.29506,-3.52853 -3.45481,-0.81453 -11.07084,-1.48761 -16.92449,-1.49574 -8.79165,-0.0122 -10.7486,0.26037 -11.25,1.56701 -0.33385,0.86998 -0.60699,25.11373 -0.60699,53.875 0,28.76126 0.28125,53.69946 0.625,55.41821 L 827.25,250 h 7.71504 c 4.35474,0 11.00958,-0.8426 15.27911,-1.93456 z M 965.01816,356.16667 C 964.35695,355.95019 964,345.18541 964,325.46103 v -30.37229 l -7.43261,-29.29437 c -4.08794,-16.1119 -14.43794,-57.28193 -23,-91.48895 C 925.00532,140.09839 918,111.63589 918,111.05542 918,110.36045 923.27067,110 933.43261,110 c 13.82956,0 15.48756,0.18178 15.96155,1.75 0.29091,0.9625 3.05546,13 6.14344,26.75 3.08798,13.75 7.79418,34.9 10.45822,47 2.66404,12.1 6.50367,29.425 8.53252,38.5 2.02884,9.075 4.03635,17.1358 4.46114,17.91289 0.61414,1.12348 0.88846,1.02106 1.33918,-0.5 0.31176,-1.05209 5.78419,-25.31289 12.16096,-53.91289 6.37677,-28.6 12.96618,-57.7375 14.64308,-64.75 l 3.049,-12.75 h 16.0258 16.0258 l -0.6548,2.25 c -0.3601,1.2375 -8.9301,35.1 -19.0444,75.25 -10.1143,40.15 -20.4472,81.01226 -22.9619,90.80503 L 995,296.11006 V 326.05503 356 l -2.25,0.20376 c -1.2375,0.11207 -7.75433,0.22457 -14.48184,0.25 -6.72752,0.0254 -12.69002,-0.10376 -13.25,-0.28709 z M 1093.25,356.33772 C 1092.2608,355.93858 1092,333.31433 1092,247.91667 V 140 h -22.4486 -22.4486 l -0.3014,-14.58642 c -0.1658,-8.02254 -0.1139,-14.77254 0.1153,-15 0.2291,-0.22747 52.0916,-0.41358 115.25,-0.41358 H 1277 v 15 15 h -76.5 -76.5 v 107.89301 c 0,97.46183 -0.1529,107.9517 -1.5818,108.5 -0.87,0.33385 -7.5075,0.57146 -14.75,0.52804 -7.2425,-0.0434 -13.7307,-0.30592 -14.4182,-0.58333 z m 61.753,-0.17105 c -0.661,-0.21967 -1.003,-31.67696 -1.003,-92.25 0,-72.88176 0.2589,-91.91081 1.25,-91.88838 0.6875,0.0156 28.475,-0.0969 61.75,-0.25 L 1277.5,171.5 v 14.5 14.5 l -45.75,0.26009 -45.75,0.26009 V 233.51009 266 h 40.0267 40.0268 l -0.2768,14.75 -0.2767,14.75 -39.75,0.26147 -39.75,0.26148 v 15.48852 c 0,11.66415 0.3086,15.51631 1.25,15.60105 0.6875,0.0619 21.275,0.17438 45.75,0.25 l 44.5,0.13748 0.2775,14.25 c 0.2146,11.02647 -0.012,14.25848 -1,14.28748 -0.7026,0.0206 -28.1636,0.13312 -61.0245,0.25 -32.8608,0.11689 -60.1983,0.0625 -60.75,-0.12081 z M 315,258.6773 c -5.225,-2.91565 -14,-7.93629 -19.5,-11.15697 -5.5,-3.22068 -18.325,-10.66283 -28.5,-16.5381 -10.175,-5.87528 -20.3,-11.72575 -22.5,-13.00105 -2.2,-1.2753 -5.05526,-3.25528 -6.34501,-4.39996 -1.28976,-1.14467 -2.97726,-3.29637 -3.75,-4.78156 C 233.2541,206.58769 233,197.2226 233,157.01754 c 0,-39.45216 0.27013,-49.71311 1.37684,-52.29966 0.75726,-1.76983 2.66976,-4.40434 4.25,-5.854451 1.58024,-1.450113 8.49816,-5.890046 15.37316,-9.866516 6.875,-3.97647 14.075,-8.122795 16,-9.214055 1.925,-1.09126 14.99056,-8.688828 29.03457,-16.883484 C 319.93075,50.706492 325.26802,48 328.41653,48 c 2.12578,0 5.32277,0.911828 7.14448,2.037709 1.8134,1.12074 4.22901,3.962816 5.36804,6.315724 1.13902,2.352909 2.06927,5.14844 2.06721,6.212291 -0.002,1.063852 -0.89679,3.398999 -1.9883,5.189217 -1.09152,1.790217 -4.35233,4.755483 -7.24627,6.58948 -2.89393,1.833997 -7.73669,4.703295 -10.76169,6.376217 -3.025,1.672923 -13.69538,7.811244 -23.71195,13.640712 -10.01657,5.82947 -22.39157,12.9148 -27.5,15.74518 -5.10843,2.83038 -9.61866,5.6518 -10.02274,6.26981 -0.40408,0.61801 -0.74158,18.11116 -0.75,38.87366 L 261,193 l 1.82123,1.75 c 1.00168,0.9625 9.55452,6.25 19.0063,11.75 9.45179,5.5 23.49034,13.7125 31.19678,18.25 7.70645,4.5375 14.76475,8.25 15.68512,8.25 0.92038,0 15.64977,-7.9443 32.73199,-17.654 17.08222,-9.70969 32.07774,-18.56939 33.32339,-19.68822 l 2.2648,-2.03423 -0.2648,-29.04844 c -0.22786,-24.99518 -0.47591,-29.08904 -1.7777,-29.33944 -0.83209,-0.16004 -4.20709,1.33821 -7.5,3.32947 -3.29291,1.99125 -7.78711,4.63339 -9.98711,5.87141 -2.2,1.23803 -10.63955,6.14282 -18.75457,10.89956 -8.11501,4.75673 -17.34001,10.03959 -20.5,11.73969 -4.67215,2.51366 -6.60741,3.01196 -10.35973,2.66748 -3.60103,-0.33059 -8.98103,-2.90226 -24.5,-11.71113 -10.93713,-6.20814 -21.34867,-12.37833 -23.13675,-13.71153 -1.78808,-1.3332 -3.92558,-3.7284 -4.75,-5.32265 C 274.67453,137.40371 274,134.90748 274,133.45079 c 0,-1.45669 0.6913,-4.10534 1.53622,-5.88588 0.86739,-1.82789 3.30458,-4.23121 5.59792,-5.52014 3.1096,-1.7477 5.08972,-2.16693 8.44733,-1.78848 3.07621,0.34674 9.37703,3.27773 21.1031,9.81668 9.19461,5.1273 17.41451,9.26801 18.26645,9.20159 0.85194,-0.0664 6.72398,-3.12399 13.04898,-6.7946 6.325,-3.67061 15.1,-8.71774 19.5,-11.21583 4.4,-2.4981 15.92551,-9.19435 25.61225,-14.88057 9.68674,-5.68622 18.91174,-10.431005 20.5,-10.543961 1.58826,-0.112957 4.01275,-0.12202 5.38775,-0.02014 1.375,0.101879 3.90759,1.421679 5.62798,2.932888 1.72038,1.511213 3.63792,3.739983 4.26119,4.952833 0.79309,1.54329 1.15063,15.95058 1.19122,48 0.0319,25.18715 0.0268,48.15732 -0.0112,51.04482 -0.0618,4.69169 -0.46824,5.64879 -3.82166,9 -2.06386,2.0625 -11.85136,8.44834 -21.75,14.19075 -9.89864,5.74241 -23.39753,13.64024 -29.99753,17.55074 -6.6,3.9105 -17.41983,10.12467 -24.04407,13.80926 -9.21816,5.12739 -12.97226,6.69673 -16,6.68849 -2.9028,-0.008 -6.48498,-1.42202 -13.45593,-5.31194 z"
       id="path1"
       inkscape:highlight-color="#000000" />
  </g>
</svg>
