<svg width="64" height="64" viewBox="0 0 64 64" fill="none" xmlns="http://www.w3.org/2000/svg">
<path fill-rule="evenodd" clip-rule="evenodd" d="M50.6673 50.6666V13.3333C50.6673 8.91503 47.0856 5.33331 42.6673 5.33331H21.334C16.9157 5.33331 13.334 8.91503 13.334 13.3333V50.6666C13.334 55.0849 16.9157 58.6666 21.334 58.6666H42.6673C47.0856 58.6666 50.6673 55.0849 50.6673 50.6666ZM33.894 49.8933C34.6506 49.1265 34.8716 47.9797 34.454 46.9866C34.3245 46.6446 34.1348 46.3285 33.894 46.0533C33.7673 45.9386 33.6337 45.8318 33.494 45.7333C33.3453 45.6324 33.1839 45.5517 33.014 45.4933L32.534 45.3333C31.6463 45.1632 30.7329 45.4543 30.1073 46.1066C29.8645 46.3603 29.6742 46.6593 29.5473 46.9866C29.1508 47.9772 29.3829 49.1088 30.1374 49.8632C30.8919 50.6177 32.0234 50.8498 33.014 50.4533C33.3371 50.3183 33.6348 50.1289 33.894 49.8933ZM45.334 13.3333C45.334 11.8606 44.1401 10.6666 42.6673 10.6666H21.334C19.8612 10.6666 18.6673 11.8606 18.6673 13.3333V50.6666C18.6673 52.1394 19.8612 53.3333 21.334 53.3333H42.6673C44.1401 53.3333 45.334 52.1394 45.334 50.6666V13.3333ZM29.334 13.3333H34.9873H35.0406C36.5134 13.3333 37.7073 14.5272 37.7073 16C37.7073 17.4727 36.5134 18.6666 35.0406 18.6666H29.334C27.8612 18.6666 26.6673 17.4727 26.6673 16C26.6673 14.5272 27.8612 13.3333 29.334 13.3333Z" fill="#CCCCCC" fill-opacity="0.81"/>
</svg>
