<svg width="54" height="44" viewBox="0 0 54 44" fill="none" xmlns="http://www.w3.org/2000/svg">
<path fill-rule="evenodd" clip-rule="evenodd" d="M52.3067 4.18664C50.8165 1.982 48.3277 0.662626 45.6667 0.666635H8.33337C3.9151 0.666635 0.333374 4.24836 0.333374 8.66664V35.3333C0.333374 39.7516 3.9151 43.3333 8.33337 43.3333H45.6667C50.085 43.3333 53.6667 39.7516 53.6667 35.3333V8.66664C53.6703 7.07109 53.1967 5.51093 52.3067 4.18664ZM8.33337 5.99997H45.6667C46.4326 6.00094 47.1612 6.33121 47.6667 6.90664L27 18.9866L6.36004 6.87997C6.8642 6.32136 7.5809 6.00175 8.33337 5.99997ZM45.6667 38C47.1395 38 48.3334 36.8061 48.3334 35.3333V12.64L29.6667 23.5733C28.8565 24.0433 27.9367 24.2916 27 24.2933C26.0658 24.2998 25.1462 24.0607 24.3334 23.6L5.66671 12.64V35.3333C5.66671 36.8061 6.86061 38 8.33337 38H45.6667Z" fill="#231F20"/>
</svg>
