<svg width="64" height="64" viewBox="0 0 64 64" fill="none" xmlns="http://www.w3.org/2000/svg">
<path fill-rule="evenodd" clip-rule="evenodd" d="M57.3073 14.1867C55.8172 11.9821 53.3283 10.6627 50.6673 10.6667H13.334C8.91571 10.6667 5.33398 14.2484 5.33398 18.6667V45.3334C5.33398 49.7516 8.91571 53.3334 13.334 53.3334H50.6673C55.0856 53.3334 58.6673 49.7516 58.6673 45.3334V18.6667C58.6709 17.0712 58.1973 15.511 57.3073 14.1867ZM13.334 16H50.6673C51.4333 16.001 52.1618 16.3313 52.6673 16.9067L32.0007 28.9867L11.3607 16.88C11.8648 16.3214 12.5815 16.0018 13.334 16ZM50.6673 48C52.1401 48 53.334 46.8061 53.334 45.3334V22.64L34.6673 33.5734C33.8571 34.0434 32.9373 34.2917 32.0007 34.2934C31.0664 34.2998 30.1468 34.0607 29.334 33.6L10.6673 22.64V45.3334C10.6673 46.8061 11.8612 48 13.334 48H50.6673Z" fill="#CCCCCC"/>
</svg>
