<svg width="54" height="54" viewBox="0 0 54 54" fill="none" xmlns="http://www.w3.org/2000/svg">
<g id="Group">
<g id="Layer_77">
<path id="Shape" fill-rule="evenodd" clip-rule="evenodd" d="M45.6673 24.3333V19C45.6673 8.69069 37.31 0.333344 27.0007 0.333344C16.6913 0.333344 8.33398 8.69069 8.33398 19V24.3333C3.91571 24.3333 0.333984 27.9151 0.333984 32.3333V45.6667C0.333984 50.0849 3.91571 53.6667 8.33398 53.6667H45.6673C50.0856 53.6667 53.6673 50.0849 53.6673 45.6667V32.3333C53.6673 27.9151 50.0856 24.3333 45.6673 24.3333ZM13.6673 19C13.6673 11.6362 19.6369 5.66668 27.0006 5.66668C34.3644 5.66668 40.334 11.6362 40.334 19V24.3333H13.6673V19ZM45.6673 48.3333C47.1401 48.3333 48.334 47.1394 48.334 45.6667V32.3333C48.334 30.8606 47.1401 29.6667 45.6673 29.6667H8.33398C6.86123 29.6667 5.66732 30.8606 5.66732 32.3333V45.6667C5.66732 47.1394 6.86123 48.3333 8.33398 48.3333H45.6673Z" fill="#CCCCCC"/>
</g>
</g>
</svg>
