<?xml version="1.0" encoding="UTF-8" standalone="no"?>
<!-- Created with Inkscape (http://www.inkscape.org/) -->

<svg
   version="1.1"
   id="svg1"
   width="1358"
   height="696"
   viewBox="0 0 1358 696"
   sodipodi:docname="logocaixinha.svg"
   inkscape:version="1.3 (0e150ed6c4, 2023-07-21)"
   xmlns:inkscape="http://www.inkscape.org/namespaces/inkscape"
   xmlns:sodipodi="http://sodipodi.sourceforge.net/DTD/sodipodi-0.dtd"
   xmlns="http://www.w3.org/2000/svg"
   xmlns:svg="http://www.w3.org/2000/svg">
  <defs
     id="defs1" />
  <sodipodi:namedview
     id="namedview1"
     pagecolor="#ffffff"
     bordercolor="#000000"
     borderopacity="0.25"
     inkscape:showpageshadow="2"
     inkscape:pageopacity="0.0"
     inkscape:pagecheckerboard="0"
     inkscape:deskcolor="#d1d1d1"
     inkscape:zoom="0.574329"
     inkscape:cx="484.9137"
     inkscape:cy="312.53863"
     inkscape:window-width="1920"
     inkscape:window-height="991"
     inkscape:window-x="-9"
     inkscape:window-y="-9"
     inkscape:window-maximized="1"
     inkscape:current-layer="g1" />
  <g
     inkscape:groupmode="layer"
     inkscape:label="Image"
     id="g1">
    <g
       id="g12839">
      <path
         style="fill:#fcfcfb"
         d="M 0,348 V 0 h 679 679 V 348 696 H 679 0 Z m 332.70295,290.76856 c 1.53838,-0.67729 12.47205,-6.8184 24.29705,-13.64691 11.825,-6.8285 26.225,-15.10394 32,-18.38986 5.775,-3.28592 14.55,-8.3389 19.5,-11.22886 18.11365,-10.57529 47.57443,-27.60611 70.5,-40.75496 21.43432,-12.29355 56.8591,-32.69737 87.42886,-50.35691 6.56087,-3.79008 13.58639,-8.46606 15.61227,-10.39106 l 3.68342,-3.5 0.62645,-21.5 c 0.34455,-11.825 0.61473,-76.56732 0.60041,-143.87182 -0.022,-103.3762 -0.24517,-122.79556 -1.43764,-125.10156 -3.09736,-5.98963 -4.62477,-6.95574 -81.51377,-51.55857 -14.025,-8.13582 -28.65579,-16.68429 -32.51286,-18.9966 -16.97169,-10.17452 -20.294,-11.17405 -26.49046,-7.96973 -3.71906,1.9232 -7.49351,9.38261 -6.58308,13.01007 0.86128,3.43159 5.06764,8.01984 9.86841,10.76433 6.35525,3.63316 40.86193,23.50211 71.18774,40.98992 14.83337,8.55387 27.08561,15.93082 27.22721,16.39322 0.1416,0.46241 -9.06979,6.15337 -20.46975,12.64658 -11.39997,6.49321 -25.45221,14.54311 -31.22721,17.88865 -5.775,3.34555 -32.325,18.68003 -59,34.07663 -26.675,15.3966 -53.675,31.01121 -60,34.69914 -37.47802,21.85236 -44.66451,25.9848 -46.18829,26.55955 -1.69759,0.64031 -3.61181,-0.40236 -46.75711,-25.46863 -10.69498,-6.2135 -31.61998,-18.28784 -46.5,-26.83187 C 221.67457,267.68528 203.875,257.45357 197,253.49218 130.43706,215.1385 128.33741,213.99829 124.28324,214.00374 c -10.29859,0.0138 -15.90132,14.19767 -8.4341,21.35173 1.49315,1.43053 23.17543,14.37778 48.18284,28.77167 25.00741,14.39389 52.89302,30.45436 61.96802,35.68994 9.075,5.23557 21,12.07489 26.5,15.19848 5.5,3.12359 20.8,11.89083 34,19.48277 13.2,7.59193 27.50245,15.81705 31.78322,18.27804 6.40793,3.68389 8.39303,4.37557 11.23436,3.91449 3.51069,-0.56971 13.65797,-5.97555 36.98242,-19.70197 7.15,-4.20777 15.475,-9.01721 18.5,-10.68764 3.025,-1.67043 18.55,-10.58752 34.5,-19.81576 15.95,-9.22824 30.35,-17.54544 32,-18.48268 1.65,-0.93724 7.95,-4.62014 14,-8.18422 6.05,-3.56408 13.025,-7.60494 15.5,-8.97969 10.85272,-6.02821 62.26453,-35.52901 69.81206,-40.05913 4.57163,-2.74394 8.52942,-4.77162 8.79509,-4.50595 0.77302,0.77302 0.76763,-0.42914 0.57604,128.40157 L 560,477.85078 539.75,489.59302 c -11.1375,6.45823 -26.55,15.43257 -34.25,19.94298 -7.7,4.51041 -16.7,9.78237 -20,11.71547 -3.3,1.93311 -12.975,7.55582 -21.5,12.49492 -38.37582,22.23368 -55.50962,32.19235 -69,40.10487 -7.975,4.67758 -21.25,12.39374 -29.5,17.14703 -8.25,4.75329 -19.5974,11.42321 -25.21645,14.82203 C 334.66451,609.21914 329.44938,612 328.69439,612 c -0.755,0 -12.35759,-6.35271 -25.78355,-14.11712 C 278.50837,583.77059 252.89388,568.94102 211.5,544.96033 199.4,537.95045 169.025,520.40831 144,505.97779 118.975,491.54728 97.9375,479.03788 97.25,478.17912 c -1.83283,-2.28939 -1.83283,-266.46253 0,-267.94589 0.6875,-0.55641 4.85,-3.0099 9.25,-5.45221 10.37658,-5.75972 83.16095,-47.29796 95.5,-54.5021 5.225,-3.05061 10.95782,-6.92008 12.7396,-8.59883 5.68765,-5.35875 5.35282,-12.34318 -0.87792,-18.31261 -2.45525,-2.35228 -3.83464,-2.85613 -7.67734,-2.80431 -4.02474,0.0543 -6.8669,1.32802 -20.18434,9.04587 -8.525,4.94049 -35.75,20.59893 -60.5,34.79653 -24.75,14.1976 -46.510247,26.94878 -48.356105,28.33595 C 70.605766,197.65495 71,187.94916 71,344 c 0,120.60369 0.214972,142.57874 1.423067,145.47012 1.562748,3.74018 6.35309,7.57335 16.463897,13.17422 3.63717,2.0148 12.913036,7.3623 20.613036,11.88334 7.7,4.52103 24.575,14.30482 37.5,21.74175 27.81977,16.00726 42.36243,24.42782 62,35.89956 7.975,4.65878 22.15,12.89398 31.5,18.30045 9.35,5.40647 22.85,13.28419 30,17.50604 7.15,4.22185 18.85,10.97981 26,15.01767 7.15,4.03787 14.125,8.11431 15.5,9.05874 4.2989,2.95277 14.42103,7.9048 16.20295,7.92694 0.93662,0.0117 2.96162,-0.53298 4.5,-1.21027 z m 341.28972,-287.0918 c -0.0294,-157.39722 -0.33003,-289.875444 -0.66818,-294.396059 -0.33816,-4.520614 -0.9995,-7.981556 -1.46966,-7.690983 -0.97725,0.603976 -1.19202,587.739752 -0.21535,588.716432 0.35171,0.35171 1.03707,0.39375 1.52302,0.0934 0.50826,-0.31412 0.86087,-122.09899 0.83017,-286.72281 z M 334.5,590.62696 c 2.75,-1.29443 12.2,-6.53888 21,-11.65434 18.5803,-10.80077 83.65941,-48.34087 117,-67.49005 49.74897,-28.57332 67.07579,-38.71844 68.85238,-40.31411 C 545.99092,467.0023 546,466.89341 546,415.45079 c 0,-55.1821 0.22756,-53.475 -7.75188,-58.15127 l -4.49164,-2.63227 -16.12824,1.72453 c -20.5756,2.20006 -32.98997,4.67648 -48.62824,9.70036 -21.43095,6.88481 -28.43671,9.69237 -66.5,26.64989 -20.35,9.06609 -40.94612,17.99655 -45.76916,19.84547 -31.3616,12.02246 -71.03804,13.41781 -111.23084,3.91176 -31.02302,-7.33728 -67.33611,-25.12053 -97.77322,-47.8815 -9.47473,-7.08524 -18.45564,-13.23885 -19.95759,-13.67469 -4.22769,-1.22683 -9.39775,0.7034 -12.38927,4.62548 l -2.65819,3.48507 -0.11087,50.72319 c -0.11902,54.45536 -0.0863,54.83835 4.99672,58.56506 1.38172,1.01303 9.57277,5.90534 18.20232,10.87181 8.62956,4.96647 17.2651,9.94142 19.1901,11.05543 1.925,1.11402 5.975,3.38872 9,5.05488 3.025,1.66617 9.775,5.57116 15,8.67775 5.225,3.10659 29.75,17.2562 54.5,31.44359 24.75,14.18739 47.025,27.04127 49.5,28.56417 6.55433,4.03299 39.06697,22.39856 42,23.72475 3.49546,1.58049 3.8867,1.53489 9.5,-1.10729 z M 846.34392,580.5467 c 6.4808,-0.7147 16.31174,-5.54755 20.82192,-10.23598 2.01622,-2.0959 5.02302,-6.51072 6.68179,-9.81072 C 876.59962,555.02513 881,541.34853 881,538.2701 881,537.32814 878.42138,537 871.01905,537 h -9.98095 l -0.62547,2.75 c -3.67904,16.17543 -11.24449,24.22207 -22.7946,24.24442 -4.15676,0.008 -9.26761,-3.52989 -12.03548,-8.33145 -6.75242,-11.71376 -8.70241,-25.73342 -8.78531,-63.16297 -0.081,-36.57538 1.85004,-50.13655 8.87304,-62.31267 4.63916,-8.04313 13.45852,-10.59112 20.43184,-5.90291 3.74178,2.51562 9.21393,12.33827 10.30561,18.49882 2.8543,16.10737 3.56048,21.6703 3.58192,28.21676 0.0135,4.125 0.31144,10.5375 0.66206,14.25 l 0.6375,6.75 H 871.1446 881 v -10.29154 c 0,-12.02352 -2.23396,-30.39333 -5.02167,-41.29321 -4.02346,-15.73154 -11.53856,-27.13232 -21.90034,-33.2239 C 849.89309,404.7311 848.59841,404.5 839,404.5 c -9.20292,0 -11.1163,0.30883 -15.48903,2.5 -14.02463,7.02773 -22.4408,24.0587 -26.43803,53.5 -2.33855,17.22445 -1.17963,59.68626 2.08793,76.5 5.0314,25.88979 16.04361,40.92024 32.16553,43.90239 4.08851,0.75627 5.16569,0.73076 15.01752,-0.35569 z m 125.31259,-2.72527 c 2.54909,-1.19822 6.40439,-3.86203 8.56733,-5.91958 4.61126,-4.38658 4.48489,-4.90085 -3.00287,-12.22065 l -4.92938,-4.81881 -3.78534,2.56881 c -2.08194,1.41284 -4.54411,2.5688 -5.47148,2.5688 -2.86755,0 -5.89797,-4.27034 -9.63061,-13.57105 -1.97089,-4.91092 -4.26764,-10.3878 -5.10389,-12.17085 -0.83626,-1.78304 -1.29576,-3.82748 -1.02111,-4.54319 0.27464,-0.71571 3.83895,-2.95182 7.92069,-4.96912 13.32819,-6.58715 23.78738,-20.74101 27.89277,-37.74579 2.14145,-8.86998 1.59797,-31.70092 -0.99978,-42 -6.70728,-26.59177 -20.57234,-38.27163 -48.80497,-41.11307 -9.93004,-0.9994 -24.1269,-0.22036 -32.00159,1.75607 L 899,406.21682 v 85.92657 85.92658 l 10.25,-0.28499 10.25,-0.28498 0.26913,-22.25 0.26913,-22.25 h 2.25837 c 5.45087,0 9.709,5.79317 14.64792,19.92846 3.32102,9.50481 6.94874,16.97684 9.93507,20.46327 2.56647,2.99627 11.21056,6.58779 15.88128,6.5985 2.34349,0.005 6.34652,-0.97059 8.89561,-2.1688 z M 920.23949,468.25 920.5,424.5 l 3,-0.34368 c 3.9619,-0.45388 16.77234,1.6417 21.1067,3.45271 4.98476,2.08277 11.2025,8.07284 13.83406,13.32751 3.7219,7.43187 5.0155,14.66381 5.0198,28.06346 0.005,14.55764 -2.16095,22.72013 -8.02483,30.24668 C 949.65265,506.66951 937.04824,512 925.27939,512 h -5.30041 z m 95.53191,88.79582 c 0.1967,-14.83148 0.6091,-20.66874 1.5,-21.23469 0.6757,-0.42928 10.0036,-0.7805 20.7286,-0.7805 10.725,0 20.0529,0.35122 20.7286,0.7805 0.8909,0.56595 1.3033,6.40321 1.5,21.23469 L 1060.5,577.5 l 10.3463,0.28605 10.3464,0.28604 -0.47,-56.78604 c -0.3747,-45.27888 -0.7923,-58.81246 -2.0607,-66.78605 -4.1525,-26.1033 -11.6716,-40.27283 -25.1063,-47.31228 -4.5327,-2.37502 -6.1419,-2.64951 -15.5557,-2.65343 -8.5404,-0.004 -11.3493,0.3858 -15.0508,2.08632 -13.2766,6.09946 -21.2707,19.68273 -25.52977,43.37939 -1.4448,8.03853 -1.77489,18.62048 -2.14568,68.78589 l -0.43821,59.28589 10.33226,-0.28589 L 1015.5,577.5 Z m 0.498,-69.79582 c 0.608,-34.41968 2.2538,-45.6416 8.1761,-55.74724 5.6691,-9.67364 16.8743,-11.46287 23.9562,-3.82532 7.5764,8.17076 10.2991,23.06568 11.2551,61.57256 l 0.6641,26.75 h -22.2797 -22.2797 z m 104.964,64.5 0.2666,-26.25 26.9176,-0.26665 c 18.2461,-0.18075 27.3583,-0.63237 28.2855,-1.40192 1.0158,-0.84301 1.2944,-3.47742 1.0824,-10.23335 L 1177.5,504.5 l -28.2619,-0.26559 -28.2618,-0.2656 0.2618,-38.2344 0.2619,-38.23441 32,-0.53529 c 17.6,-0.29441 32.1288,-0.63191 32.2862,-0.75 0.1574,-0.11809 0.1574,-4.60221 0,-9.96471 L 1185.5,406.5 1145,406.22191 c -22.275,-0.15295 -41.5125,-0.0319 -42.75,0.26905 L 1100,407.0381 V 492.51905 578 h 10.4834 10.4834 z m 122.7821,-44.46379 c -0.023,-38.61758 0.25,-72.69396 0.6063,-75.72529 l 0.6478,-5.5115 15.6152,-0.27471 L 1276.5,425.5 v -9.5 -9.5 h -42.5 -42.5 v 9.5 9.5 l 16,0.5 16,0.5 0.2563,75.78491 0.2563,75.78492 10.0222,-0.28492 L 1244.057,577.5 Z M 854.78941,357.93684 c 36.56552,-4.00334 52.99884,-13.13633 59.6251,-33.13727 6.21299,-18.75353 2.79893,-39.0186 -8.66955,-51.46043 -2.27146,-2.46424 -6.0683,-5.6164 -8.43744,-7.00481 C 894.93838,264.94593 893,263.48691 893,263.09207 c 0,-0.39484 1.4107,-2.03958 3.1349,-3.65498 7.9433,-7.44209 15.78298,-23.33108 18.32287,-37.13562 3.10286,-16.86439 3.68607,-29.30962 2.08593,-44.51187 -2.70716,-25.71949 -7.81197,-39.43543 -19.29195,-51.83486 -11.75996,-12.70185 -25.20365,-17.27518 -54.65137,-18.59155 -14.00205,-0.62592 -35.18841,0.72516 -42.85434,2.73287 l -3.75397,0.98316 0.25397,122.16565 0.25396,122.16566 4,0.88344 c 12.58444,2.77941 37.12546,3.52206 54.28941,1.64287 z M 826.23314,305.87975 826.5,279.5 l 7,-0.30597 c 12.89594,-0.56368 32.8287,2.96913 41.59002,7.37127 9.73815,4.89294 14.37878,14.71591 11.79668,24.97038 -3.13773,12.46107 -16.97227,18.04372 -49.65356,20.03673 l -11.26685,0.68708 z m -0.56211,-70.4406 c -0.35885,-8.69666 -0.35898,-34.81286 -2.9e-4,-58.03599 l 0.65215,-42.22388 4.08856,-0.40986 c 5.34288,-0.53559 20.86938,0.83958 26.58855,2.35494 15.65968,4.1492 24.52513,14.14413 28.49001,32.11971 1.36486,6.18786 1.62206,11.21174 1.2799,25 -0.38443,15.49177 -0.69965,18.02237 -3.08325,24.75277 -7.20445,20.3427 -21.2975,29.83854 -46.82173,31.5483 l -10.54144,0.70613 z M 994.03513,326.25 c 0.025,-20.50263 0.42489,-30.47119 1.39383,-34.75 0.74729,-3.3 7.99084,-32.1 16.09674,-64 8.1059,-31.9 15.0996,-59.575 15.5416,-61.5 2.3239,-10.12238 12.285,-49.37598 13.5128,-53.25 0.5115,-1.61389 -0.6197,-1.75 -14.5441,-1.75 -11.2305,0 -15.1861,0.32025 -15.4398,1.25 -0.9319,3.41584 -5.5331,23.51246 -15.05361,65.75 -5.76474,25.575 -11.44846,50.775 -12.6305,56 -1.18204,5.225 -2.77082,10.15893 -3.53063,10.96429 C 978.17629,246.24172 978,246.19286 978,244.5814 c 0,-1.01594 -3.18305,-16.07487 -7.07344,-33.46428 C 967.03616,193.7277 963.48864,177.7 963.04317,175.5 c -0.44546,-2.2 -3.16586,-14.35 -6.04532,-27 -6.32337,-27.77974 -6.84178,-30.10483 -7.63646,-34.25 L 948.73832,111 h -14.86916 c -8.17804,0 -14.86565,0.3375 -14.86136,0.75 0.007,0.67147 18.76526,75.64245 21.07995,84.25 0.51766,1.925 1.34243,5.3 1.83282,7.5 0.4904,2.2 5.88354,23.8 11.98477,48 l 11.09314,44 7.6e-4,29.75 L 965,355 h 14.5 14.5 z m 128.71937,-79.19378 c 0.1759,-74.25763 0.5815,-107.64587 1.3132,-108.09807 0.5823,-0.35985 35.0052,-0.43411 76.4955,-0.165 L 1276,139.28242 V 125.13697 110.99153 L 1161.75,111.24576 1047.5,111.5 v 13.5 13.5 l 21.1188,0.0927 c 11.6153,0.051 21.8528,0.37434 22.75,0.71861 1.4942,0.57339 1.6312,9.60165 1.6312,107.49068 0,58.77559 0.3118,107.17654 0.6929,107.55766 0.3812,0.38112 7.0187,0.56862 14.75,0.41667 L 1122.5,354.5 Z M 1276.5,341.5 v -13 l -45.5,-0.5 -45.5,-0.5 -0.2748,-16.25 c -0.1511,-8.9375 -0.1511,-16.34955 0,-16.47123 0.1512,-0.12167 18.2748,-0.45917 40.2748,-0.75 l 40,-0.52877 0.2821,-12.41787 c 0.1552,-6.82983 -0.1228,-12.82285 -0.6178,-13.31782 -0.5045,-0.50451 -17.7649,-0.86878 -39.2821,-0.82901 -21.1102,0.039 -38.951,-0.29845 -39.6463,-0.74992 -0.9851,-0.63965 -1.2058,-7.97971 -1,-33.25311 L 1185.5,200.5 1231,200 l 45.5,-0.5 V 186 172.5 h -60.5 -60.5 l -0.258,90 c -0.1419,49.5 -0.042,90.56602 0.2216,91.25782 0.3795,0.99517 13.0664,1.20398 60.758,1 L 1276.5,354.5 Z M 344.32131,255.86982 c 6.14828,-3.42803 17.02869,-9.69417 24.17869,-13.92476 7.15,-4.23059 16.15,-9.48334 20,-11.67279 19.73723,-11.22432 27.21493,-15.72184 29.34501,-17.64979 5.31679,-4.81225 5.30295,-4.6907 5.87142,-51.55926 0.62008,-51.12284 0.17668,-56.19387 -5.33677,-61.03474 C 415.63288,97.616775 414.01389,97 410.43012,97 c -4.00753,0 -7.6444,1.828236 -33.2152,16.69713 -15.79321,9.18342 -30.06492,17.40493 -31.71492,18.27001 -1.65,0.86508 -5.75886,3.25137 -9.13081,5.30287 -3.37195,2.05149 -6.70128,3.72999 -7.39853,3.72999 -0.69724,0 -9.10303,-4.33334 -18.67954,-9.62964 -21.32038,-11.79127 -23.85354,-12.35868 -30.01406,-6.72289 -8.14661,7.4527 -6.29425,14.45257 5.76274,21.77679 10.31532,6.2662 35.15814,20.06558 38.71619,21.50559 5.74972,2.32701 7.15308,1.67367 49.24401,-22.92563 20.40429,-11.92494 20.98396,-12.22435 22.5228,-11.63384 1.25804,0.48275 1.4772,5.07061 1.4772,30.92392 0,30.22544 -0.01,30.3657 -2.25,32.34597 C 391.72732,200.19614 331.3003,234 328.96659,234 c -1.24656,0 -5.46149,-1.86597 -9.36653,-4.14659 -3.90503,-2.28063 -13.85006,-8.07742 -22.10006,-12.88177 -8.25,-4.80434 -19.95,-11.63212 -26,-15.17285 l -11,-6.43769 -0.26119,-40.0071 -0.2612,-40.0071 35.2612,-20.10042 c 39.76099,-22.665505 43.1435,-24.883311 45.50555,-29.836577 1.63738,-3.433625 1.61596,-3.666728 -0.74595,-8.118967 -2.7307,-5.147418 -7.05533,-8.281623 -11.43481,-8.287198 -1.9413,-0.0025 -9.73573,3.957529 -23,11.68526 -11.03498,6.428948 -28.56133,16.575692 -38.94745,22.548318 -26.11978,15.020399 -28.33701,16.563506 -30.64598,21.328404 -1.8768,3.87305 -1.97017,6.35162 -1.97017,52.29966 0,51.75575 -0.0648,51.05503 5.15499,55.73884 1.28975,1.15733 14.72001,9.2119 29.84501,17.89906 15.125,8.68716 30.84473,17.80732 34.93274,20.26704 15.56403,9.36473 22.29394,12.45458 25.8648,11.87511 1.83979,-0.29856 8.37548,-3.34758 14.52377,-6.77561 z"
         id="path12843" />
      <path
         style="fill:#f1cc1a"
         d="m 320.36542,636.73 c -3.37402,-1.7765 -7.19902,-4.00773 -8.5,-4.95828 -1.30098,-0.95055 1.59864,0.33788 6.4436,2.8632 7.0627,3.68125 9.44161,4.47019 12,3.97967 2.27824,-0.4368 2.76192,-0.33054 1.69098,0.37149 -2.51066,1.64581 -5.22276,1.1199 -11.63458,-2.25608 z m 351.27406,1.57615 c -0.97667,-0.97668 -0.7619,-588.112456 0.21535,-588.716432 0.47016,-0.290573 1.1315,3.170369 1.46966,7.690983 0.98499,13.167989 0.82685,580.507739 -0.16199,581.118869 -0.48595,0.30033 -1.17131,0.25829 -1.52302,-0.0934 z M 335,636.94601 c 2.58217,-1.76167 9,-5.00755 9,-4.55183 0,0.52404 -8.98867,5.61228 -9.87595,5.59051 -0.34323,-0.008 0.051,-0.47583 0.87595,-1.03868 z m 10,-5.39465 c 0,-0.275 1.35,-1.19811 3,-2.05136 1.65,-0.85325 3,-1.32636 3,-1.05136 0,0.275 -1.35,1.19811 -3,2.05136 -1.65,0.85325 -3,1.32636 -3,1.05136 z m -39.25,-3.12333 c -3.73844,-2.02814 -3.51088,-2.87286 0.25,-0.92803 1.65,0.85325 3,1.7648 3,2.02568 0,0.6435 -0.10745,0.60721 -3.25,-1.09765 z M 352,627.55136 c 0,-0.275 1.35,-1.19811 3,-2.05136 1.65,-0.85325 3,-1.32636 3,-1.05136 0,0.275 -1.35,1.19811 -3,2.05136 -1.65,0.85325 -3,1.32636 -3,1.05136 z m -53.25,-3.12333 c -3.73844,-2.02814 -3.51088,-2.87286 0.25,-0.92803 1.65,0.85325 3,1.7648 3,2.02568 0,0.6435 -0.10745,0.60721 -3.25,-1.09765 z m 61.75,-1.94334 c 2.23786,-1.83645 10.56736,-6.24118 9,-4.7593 -0.55,0.52001 -3.25,2.17286 -6,3.67301 -2.75,1.50015 -4.1,1.98898 -3,1.08629 z m -68.75,-2.05666 c -3.73844,-2.02814 -3.51088,-2.87286 0.25,-0.92803 1.65,0.85325 3,1.7648 3,2.02568 0,0.6435 -0.10745,0.60721 -3.25,-1.09765 z m -9.5,-5.45764 c -2.8875,-1.65597 -5.25,-3.24571 -5.25,-3.53277 0,-0.54612 8.80191,4.27762 10.45,5.72695 1.75194,1.54065 0.0886,0.83878 -5.2,-2.19418 z m 88.75,1.58097 c 0,-0.275 1.35,-1.19811 3,-2.05136 1.65,-0.85325 3,-1.32636 3,-1.05136 0,0.275 -1.35,1.19811 -3,2.05136 -1.65,0.85325 -3,1.32636 -3,1.05136 z m -43.1875,-4.23447 c 0.72187,-0.28887 1.58438,-0.25335 1.91667,0.0789 0.33229,0.33229 -0.25834,0.56864 -1.3125,0.52522 -1.16495,-0.048 -1.4019,-0.28494 -0.60417,-0.60416 z m -64.19053,-8.32748 c -9.69367,-5.80179 -13.56558,-8.49497 -8.62197,-5.99717 7.172,3.62371 20.90588,12.38302 18.75,11.95854 -0.1375,-0.0271 -4.69511,-2.70969 -10.12803,-5.96137 z M 383,609.57037 c 0,-0.275 0.9,-0.98167 2,-1.57037 1.1,-0.5887 2,-0.84537 2,-0.57037 0,0.275 -0.9,0.98167 -2,1.57037 -1.1,0.5887 -2,0.84537 -2,0.57037 z m 7,-4 c 0,-0.275 0.9,-0.98167 2,-1.57037 1.1,-0.5887 2,-0.84537 2,-0.57037 0,0.275 -0.9,0.98167 -2,1.57037 -1.1,0.5887 -2,0.84537 -2,0.57037 z m 5,-2.90818 c 0,-0.26326 2.94261,-2.09611 6.53914,-4.07302 3.59653,-1.9769 7.75903,-4.32159 9.25,-5.21043 l 2.71086,-1.61608 -2.41464,1.99716 C 408.3731,596.00314 395,603.40443 395,602.66219 Z m -146.25,-7.23416 c -3.73844,-2.02814 -3.51088,-2.87286 0.25,-0.92803 1.65,0.85325 3,1.7648 3,2.02568 0,0.6435 -0.10745,0.60721 -3.25,-1.09765 z M 358,595.57037 c 0,-0.275 0.9,-0.98167 2,-1.57037 1.1,-0.5887 2,-0.84537 2,-0.57037 0,0.275 -0.9,0.98167 -2,1.57037 -1.1,0.5887 -2,0.84537 -2,0.57037 z M 239.25,589.8954 c -2.8875,-1.68327 -5.25,-3.2911 -5.25,-3.57296 0,-0.55521 8.89331,4.38974 10.45,5.81051 1.69468,1.54671 0.15535,0.88434 -5.2,-2.23755 z M 416,590.55136 c 0,-0.275 1.35,-1.19811 3,-2.05136 1.65,-0.85325 3,-1.32636 3,-1.05136 0,0.275 -1.35,1.19811 -3,2.05136 -1.65,0.85325 -3,1.32636 -3,1.05136 z m 7.73333,-4.67545 c 0.67834,-0.68342 1.48524,-0.99067 1.79313,-0.68278 0.30789,0.30789 -0.24711,0.86705 -1.23333,1.24258 -1.4252,0.54268 -1.54006,0.42782 -0.5598,-0.5598 z m -193.2922,-1.43108 c -1.86402,-1.49339 -1.85176,-1.51185 0.30887,-0.46481 1.2375,0.59969 2.25,1.29951 2.25,1.55516 0,0.76522 -0.51861,0.54424 -2.55887,-1.09035 z M 430,582.55136 c 0,-0.275 1.35,-1.19811 3,-2.05136 1.65,-0.85325 3,-1.32636 3,-1.05136 0,0.275 -1.35,1.19811 -3,2.05136 -1.65,0.85325 -3,1.32636 -3,1.05136 z M 220.25,578.8954 c -2.8875,-1.68327 -5.25,-3.2911 -5.25,-3.57296 0,-0.55521 8.89331,4.38974 10.45,5.81051 1.69468,1.54671 0.15535,0.88434 -5.2,-2.23755 z M 437,578.57037 c 0,-0.275 0.9,-0.98167 2,-1.57037 1.1,-0.5887 2,-0.84537 2,-0.57037 0,0.275 -0.9,0.98167 -2,1.57037 -1.1,0.5887 -2,0.84537 -2,0.57037 z m 5,-3 c 0,-0.275 0.9,-0.98167 2,-1.57037 1.1,-0.5887 2,-0.84537 2,-0.57037 0,0.275 -0.9,0.98167 -2,1.57037 -1.1,0.5887 -2,0.84537 -2,0.57037 z m -230.55887,-2.12554 c -1.86402,-1.49339 -1.85176,-1.51185 0.30887,-0.46481 1.2375,0.59969 2.25,1.29951 2.25,1.55516 0,0.76522 -0.51861,0.54424 -2.55887,-1.09035 z M 447,572.55136 c 0,-0.275 1.35,-1.19811 3,-2.05136 1.65,-0.85325 3,-1.32636 3,-1.05136 0,0.275 -1.35,1.19811 -3,2.05136 -1.65,0.85325 -3,1.32636 -3,1.05136 z m -242.55887,-3.10653 c -1.86402,-1.49339 -1.85176,-1.51185 0.30887,-0.46481 1.2375,0.59969 2.25,1.29951 2.25,1.55516 0,0.76522 -0.51861,0.54424 -2.55887,-1.09035 z m 49.06595,0.56662 c -0.35034,-0.56686 0.0511,-0.7345 0.94098,-0.39301 1.73242,0.66479 2.04939,1.38156 0.61096,1.38156 -0.51754,0 -1.21592,-0.44485 -1.55194,-0.98855 z M 200,567 c -0.90129,-0.58246 -1.02463,-0.97549 -0.30902,-0.98469 0.65504,-0.008 1.4691,0.43469 1.80902,0.98469 0.7673,1.24153 0.42112,1.24153 -1.5,0 z m 257.5,-0.49019 c 2.23423,-1.8569 8.56932,-5.28155 7,-3.78409 -0.55,0.52481 -2.8,1.96493 -5,3.20026 -2.2,1.23533 -3.1,1.49805 -2,0.58383 z M 195,563.91065 c -2.15377,-1.76168 -2.1961,-1.89635 -0.30569,-0.97239 1.20687,0.58987 2.47092,1.52008 2.80901,2.06712 0.90258,1.4604 0.29641,1.19531 -2.50332,-1.09473 z M 190,561 c -0.90129,-0.58246 -1.02463,-0.97549 -0.30902,-0.98469 0.65504,-0.008 1.4691,0.43469 1.80902,0.98469 0.7673,1.24153 0.42112,1.24153 -1.5,0 z m 276,0.55136 c 0,-0.275 1.35,-1.19811 3,-2.05136 1.65,-0.85325 3,-1.32636 3,-1.05136 0,0.275 -1.35,1.19811 -3,2.05136 -1.65,0.85325 -3,1.32636 -3,1.05136 z m -280.55887,-3.10653 c -1.86402,-1.49339 -1.85176,-1.51185 0.30887,-0.46481 1.2375,0.59969 2.25,1.29951 2.25,1.55516 0,0.76522 -0.51861,0.54424 -2.55887,-1.09035 z M 473,557.54065 c 0,-0.275 1.8,-1.41829 4,-2.54065 2.2,-1.12236 4,-1.81565 4,-1.54065 0,0.275 -1.8,1.41829 -4,2.54065 -2.2,1.12236 -4,1.81565 -4,1.54065 z m -292.55887,-2.09582 c -1.86402,-1.49339 -1.85176,-1.51185 0.30887,-0.46481 1.2375,0.59969 2.25,1.29951 2.25,1.55516 0,0.76522 -0.51861,0.54424 -2.55887,-1.09035 z m -5.69113,-3.0168 c -3.73844,-2.02814 -3.51088,-2.87286 0.25,-0.92803 1.65,0.85325 3,1.7648 3,2.02568 0,0.6435 -0.10745,0.60721 -3.25,-1.09765 z m 310.75,-1.91822 c 2.23423,-1.8569 8.56932,-5.28155 7,-3.78409 -0.55,0.52481 -2.8,1.96493 -5,3.20026 -2.2,1.23533 -3.1,1.49805 -2,0.58383 z m -317.05887,-2.06498 c -1.86402,-1.49339 -1.85176,-1.51185 0.30887,-0.46481 1.2375,0.59969 2.25,1.29951 2.25,1.55516 0,0.76522 -0.51861,0.54424 -2.55887,-1.09035 z m -7,-4 c -1.86402,-1.49339 -1.85176,-1.51185 0.30887,-0.46481 1.2375,0.59969 2.25,1.29951 2.25,1.55516 0,0.76522 -0.51861,0.54424 -2.55887,-1.09035 z M 496,544.55136 c 0,-0.275 1.35,-1.19811 3,-2.05136 1.65,-0.85325 3,-1.32636 3,-1.05136 0,0.275 -1.35,1.19811 -3,2.05136 -1.65,0.85325 -3,1.32636 -3,1.05136 z m -341.55887,-4.10653 c -1.86402,-1.49339 -1.85176,-1.51185 0.30887,-0.46481 1.2375,0.59969 2.25,1.29951 2.25,1.55516 0,0.76522 -0.51861,0.54424 -2.55887,-1.09035 z m -5,-3 c -1.86402,-1.49339 -1.85176,-1.51185 0.30887,-0.46481 1.2375,0.59969 2.25,1.29951 2.25,1.55516 0,0.76522 -0.51861,0.54424 -2.55887,-1.09035 z M 508,537.57037 c 0,-0.275 0.9,-0.98167 2,-1.57037 1.1,-0.5887 2,-0.84537 2,-0.57037 0,0.275 -0.9,0.98167 -2,1.57037 -1.1,0.5887 -2,0.84537 -2,0.57037 z m -365.55887,-4.12554 c -1.86402,-1.49339 -1.85176,-1.51185 0.30887,-0.46481 1.2375,0.59969 2.25,1.29951 2.25,1.55516 0,0.76522 -0.51861,0.54424 -2.55887,-1.09035 z M 513,534.55136 c 0,-0.275 1.35,-1.19811 3,-2.05136 1.65,-0.85325 3,-1.32636 3,-1.05136 0,0.275 -1.35,1.19811 -3,2.05136 -1.65,0.85325 -3,1.32636 -3,1.05136 z M 124.19883,523.11547 C 110.37397,515.08819 103.50172,510.68099 110,514.0097 c 4.20205,2.15248 28.43771,16.27346 29.45,17.15913 2.19738,1.92252 -0.75858,0.36163 -15.25117,-8.05336 z M 522,529.57037 c 0,-0.275 0.9,-0.98167 2,-1.57037 1.1,-0.5887 2,-0.84537 2,-0.57037 0,0.275 -0.9,0.98167 -2,1.57037 -1.1,0.5887 -2,0.84537 -2,0.57037 z m 5,-3.01901 c 0,-0.275 1.35,-1.19811 3,-2.05136 1.65,-0.85325 3,-1.32636 3,-1.05136 0,0.275 -1.35,1.19811 -3,2.05136 -1.65,0.85325 -3,1.32636 -3,1.05136 z m 7,-4 c 0,-0.275 1.35,-1.19811 3,-2.05136 1.65,-0.85325 3,-1.32636 3,-1.05136 0,0.275 -1.35,1.19811 -3,2.05136 -1.65,0.85325 -3,1.32636 -3,1.05136 z m 7,-3.98099 c 0,-0.275 0.9,-0.98167 2,-1.57037 1.1,-0.5887 2,-0.84537 2,-0.57037 0,0.275 -0.9,0.98167 -2,1.57037 -1.1,0.5887 -2,0.84537 -2,0.57037 z m 7.5,-4.29609 c 0.55,-0.52481 2.8,-1.96493 5,-3.20026 2.2,-1.23533 3.1,-1.49805 2,-0.58383 -2.23423,1.8569 -8.56932,5.28155 -7,3.78409 z m -444.05887,-2.82945 c -1.86402,-1.49339 -1.85176,-1.51185 0.30887,-0.46481 1.2375,0.59969 2.25,1.29951 2.25,1.55516 0,0.76522 -0.51861,0.54424 -2.55887,-1.09035 z m -5,-3 c -1.864025,-1.49339 -1.851756,-1.51185 0.30887,-0.46481 1.2375,0.59969 2.25,1.29951 2.25,1.55516 0,0.76522 -0.51861,0.54424 -2.55887,-1.09035 z M 558,508.55136 c 0,-0.275 1.35,-1.19811 3,-2.05136 1.65,-0.85325 3,-1.32636 3,-1.05136 0,0.275 -1.35,1.19811 -3,2.05136 -1.65,0.85325 -3,1.32636 -3,1.05136 z M 91.75,504.42803 C 88.011559,502.39989 88.239117,501.55517 92,503.5 c 1.65,0.85325 3,1.7648 3,2.02568 0,0.6435 -0.107447,0.60721 -3.25,-1.09765 z M 567,503.57037 c 0,-0.275 0.9,-0.98167 2,-1.57037 1.1,-0.5887 2,-0.84537 2,-0.57037 0,0.275 -0.9,0.98167 -2,1.57037 -1.1,0.5887 -2,0.84537 -2,0.57037 z M 816.232,501 c 0,-1.925 0.2058,-2.7125 0.45733,-1.75 0.25152,0.9625 0.25152,2.5375 0,3.5 -0.25153,0.9625 -0.45733,0.175 -0.45733,-1.75 z M 84.75,500.42803 C 81.011559,498.39989 81.239117,497.55517 85,499.5 c 1.65,0.85325 3,1.7648 3,2.02568 0,0.6435 -0.107447,0.60721 -3.25,-1.09765 z M 572,500.57037 c 0,-0.275 0.9,-0.98167 2,-1.57037 1.1,-0.5887 2,-0.84537 2,-0.57037 0,0.275 -0.9,0.98167 -2,1.57037 -1.1,0.5887 -2,0.84537 -2,0.57037 z M 76.042107,494.15484 c -2.223159,-2.11484 -4.028423,-4.47734 -4.011698,-5.25 0.01854,-0.85674 0.446594,-0.62453 1.097129,0.59516 0.586696,1.1 2.710512,3.45581 4.719591,5.23512 2.009079,1.77932 3.334319,3.24182 2.944978,3.25 -0.389342,0.008 -2.526842,-1.71544 -4.75,-3.83028 z M 582.30798,493 c 1.36855,-1.925 2.70691,-4.4 2.97414,-5.5 0.44228,-1.82056 0.49629,-1.79954 0.60188,0.23422 0.0647,1.24586 -1.25101,3.67893 -2.97414,5.5 L 579.81972,496.5 Z M 71.486553,344 c 0,-78.925 0.118504,-111.2125 0.263342,-71.75 0.144839,39.4625 0.144839,104.0375 0,143.5 -0.144838,39.4625 -0.263342,7.175 -0.263342,-71.75 z m 30.954577,138.44483 c -1.86402,-1.49339 -1.85176,-1.51185 0.30887,-0.46481 1.2375,0.59969 2.25,1.29951 2.25,1.55516 0,0.76522 -0.51861,0.54424 -2.55887,-1.09035 z M 860.15789,481 c 0,-1.375 0.22698,-1.9375 0.50439,-1.25 0.27741,0.6875 0.27741,1.8125 0,2.5 -0.27741,0.6875 -0.50439,0.125 -0.50439,-1.25 z M 96.458881,478.93347 c -0.362533,-0.58659 -0.444683,-1.281 -0.182555,-1.54313 0.262128,-0.26213 0.743066,0.21781 1.068751,1.06653 0.676184,1.76211 0.09985,2.07206 -0.886196,0.4766 z m 962.620019,-1.5168 c 0.048,-1.16495 0.285,-1.4019 0.6042,-0.60417 0.2889,0.72187 0.2534,1.58438 -0.079,1.91667 -0.3323,0.33229 -0.5687,-0.25834 -0.5253,-1.3125 z M 560.4844,354.5 c -3e-5,-67.65 0.11941,-95.47236 0.26543,-61.82746 0.14602,33.64489 0.14604,88.99489 6e-5,123 C 560.6039,449.67764 560.48444,422.15 560.4844,354.5 Z M 95.472106,410 c 0,-36.575 0.124842,-51.5375 0.277428,-33.25 0.152585,18.2875 0.152585,48.2125 0,66.5 -0.152586,18.2875 -0.277428,3.325 -0.277428,-33.25 z m 490.893124,45.5 c 0.003,-5.5 0.17053,-7.62242 0.37317,-4.71648 0.20265,2.90594 0.20052,7.40594 -0.005,10 C 586.52842,463.37758 586.36263,461 586.36523,455.5 Z M 586.4791,341 c 0,-49.775 0.12179,-70.1375 0.27064,-45.25 0.14885,24.8875 0.14885,65.6125 0,90.5 -0.14885,24.8875 -0.27064,4.525 -0.27064,-45.25 z m 554.8291,85.25236 c 7.0445,-0.17214 18.2945,-0.17164 25,0.001 6.7055,0.17275 0.9418,0.31359 -12.8082,0.31298 -13.75,-6.1e-4 -19.2363,-0.14195 -12.1918,-0.31409 z M 1103.25,406.31067 c 0.9625,-0.25152 2.5375,-0.25152 3.5,0 0.9625,0.25153 0.175,0.45733 -1.75,0.45733 -1.925,0 -2.7125,-0.2058 -1.75,-0.45733 z m 14.4777,-0.0324 c 1.7752,-0.22091 4.9252,-0.22454 7,-0.008 2.0748,0.21648 0.6223,0.39722 -3.2277,0.40166 -3.85,0.004 -5.5475,-0.17268 -3.7723,-0.39359 z m 42.5223,-0.007 c 2.0625,-0.21574 5.4375,-0.21574 7.5,0 2.0625,0.21575 0.375,0.39226 -3.75,0.39226 -4.125,0 -5.8125,-0.17651 -3.75,-0.39226 z m 56,0.0122 c 1.5125,-0.22913 3.9875,-0.22913 5.5,0 1.5125,0.22912 0.275,0.41659 -2.75,0.41659 -3.025,0 -4.2625,-0.18747 -2.75,-0.41659 z m -894.5,-51.35184 c -2.0625,-1.08883 -3.75,-2.2055 -3.75,-2.48148 0,-0.27598 1.4625,0.26521 3.25,1.20266 1.7875,0.93745 4.825,2.02226 6.75,2.41068 3.40753,0.68757 3.42074,0.7081 0.5,0.77703 -1.65,0.0389 -4.6875,-0.82005 -6.75,-1.90889 z m 10.33333,0.69527 C 333.11238,354.70641 339,352.00077 339,352.44864 339,353.02462 333.45618,356 332.38299,356 c -0.39398,0 -0.52882,-0.16777 -0.29966,-0.37282 z M 312.25,349.43386 c -4.71911,-2.82838 -5.80827,-4.30655 -1.5,-2.03575 3.02296,1.59334 7.04097,4.52528 6.25,4.56063 -0.275,0.0123 -2.4125,-1.12391 -4.75,-2.52488 z m 27.75,2.1175 c 0,-0.275 1.35,-1.19811 3,-2.05136 1.65,-0.85325 3,-1.32636 3,-1.05136 0,0.275 -1.35,1.19811 -3,2.05136 -1.65,0.85325 -3,1.32636 -3,1.05136 z m 7.73333,-4.67545 c 0.67834,-0.68342 1.48524,-0.99067 1.79313,-0.68278 0.30789,0.30789 -0.24711,0.86705 -1.23333,1.24258 -1.4252,0.54268 -1.54006,0.42782 -0.5598,-0.5598 z M 303.75,344.42803 c -3.73844,-2.02814 -3.51088,-2.87286 0.25,-0.92803 1.65,0.85325 3,1.7648 3,2.02568 0,0.6435 -0.10745,0.60721 -3.25,-1.09765 z m 49.25,-0.3456 c 2.40702,-1.96216 4,-2.60258 4,-1.60811 0,0.26088 -1.4625,1.18796 -3.25,2.06019 l -3.25,1.58588 z m -59.75,-5.65576 c -3.4375,-1.94837 -6.25,-3.77446 -6.25,-4.05797 0,-0.55337 10.869,5.36681 12.45,6.78134 1.75942,1.57415 0.0826,0.83761 -6.2,-2.72337 z m 66.25,2.08314 c 2.23423,-1.8569 8.56932,-5.28155 7,-3.78409 -0.55,0.52481 -2.8,1.96493 -5,3.20026 -2.2,1.23533 -3.1,1.49805 -2,0.58383 z m 8.5,-4.93944 c 0,-0.275 0.9,-0.98167 2,-1.57037 1.1,-0.5887 2,-0.84537 2,-0.57037 0,0.275 -0.9,0.98167 -2,1.57037 -1.1,0.5887 -2,0.84537 -2,0.57037 z m -86.25,-3.63846 c -2.0625,-1.08883 -3.75,-2.20308 -3.75,-2.47612 0,-0.27304 1.8,0.42185 4,1.54421 2.2,1.12236 4,2.2565 4,2.52032 0,0.65417 -0.007,0.65155 -4.25,-1.58841 z M 375,331.57037 c 0,-0.275 0.9,-0.98167 2,-1.57037 1.1,-0.5887 2,-0.84537 2,-0.57037 0,0.275 -0.9,0.98167 -2,1.57037 -1.1,0.5887 -2,0.84537 -2,0.57037 z m -100.55887,-4.12554 c -1.86402,-1.49339 -1.85176,-1.51185 0.30887,-0.46481 1.2375,0.59969 2.25,1.29951 2.25,1.55516 0,0.76522 -0.51861,0.54424 -2.55887,-1.09035 z M 382,327.57037 c 0,-0.275 0.9,-0.98167 2,-1.57037 1.1,-0.5887 2,-0.84537 2,-0.57037 0,0.275 -0.9,0.98167 -2,1.57037 -1.1,0.5887 -2,0.84537 -2,0.57037 z m -116.75,-5.13651 c -2.3375,-1.40097 -4.25,-2.78342 -4.25,-3.0721 0,-0.53885 6.74656,3.29214 8.45,4.79828 1.7187,1.51963 0.11775,0.86164 -4.2,-1.72618 z M 388,323.9512 c 3.4686,-2.35442 5.44393,-3.03957 3,-1.04055 -1.375,1.12468 -2.95,2.04799 -3.5,2.0518 -0.55,0.004 -0.325,-0.45125 0.5,-1.01125 z m 6,-3.39984 c 0,-0.275 1.35,-1.19811 3,-2.05136 1.65,-0.85325 3,-1.32636 3,-1.05136 0,0.275 -1.35,1.19811 -3,2.05136 -1.65,0.85325 -3,1.32636 -3,1.05136 z m -138.25,-3.61945 c -2.0625,-1.08883 -3.75,-2.20308 -3.75,-2.47612 0,-0.27304 1.8,0.42185 4,1.54421 2.2,1.12236 4,2.2565 4,2.52032 0,0.65417 -0.007,0.65155 -4.25,-1.58841 z M 401,316.55136 c 0,-0.275 1.35,-1.19811 3,-2.05136 1.65,-0.85325 3,-1.32636 3,-1.05136 0,0.275 -1.35,1.19811 -3,2.05136 -1.65,0.85325 -3,1.32636 -3,1.05136 z m -48,-0.98099 c 0,-0.275 0.9,-0.98167 2,-1.57037 1.1,-0.5887 2,-0.84537 2,-0.57037 0,0.275 -0.9,0.98167 -2,1.57037 -1.1,0.5887 -2,0.84537 -2,0.57037 z m -108.75,-5.1437 c -3.4375,-1.94837 -6.25,-3.78439 -6.25,-4.08004 0,-0.59451 10.93934,5.34825 12.45,6.76342 1.69346,1.58642 0.16947,0.92683 -6.2,-2.68338 z m 113.75,2.1437 c 0,-0.275 0.9,-0.98167 2,-1.57037 1.1,-0.5887 2,-0.84537 2,-0.57037 0,0.275 -0.9,0.98167 -2,1.57037 -1.1,0.5887 -2,0.84537 -2,0.57037 z m 52,-1.48102 c 1.375,-1.12468 2.95,-2.04799 3.5,-2.0518 1.07007,-0.007 -0.73823,1.37733 -4,3.06305 -1.32841,0.68654 -1.16051,0.34697 0.5,-1.01125 z m 6.76039,-3.72068 C 419.36525,305.21523 433,297.64764 433,298.35532 c 0,0.2599 -3.0375,2.16088 -6.75,4.22439 -3.7125,2.06351 -7.875,4.40564 -9.25,5.20473 l -2.5,1.4529 z M 367,307.57037 c 0,-0.275 0.9,-0.98167 2,-1.57037 1.1,-0.5887 2,-0.84537 2,-0.57037 0,0.275 -0.9,0.98167 -2,1.57037 -1.1,0.5887 -2,0.84537 -2,0.57037 z m -132.55887,-3.12554 c -1.86402,-1.49339 -1.85176,-1.51185 0.30887,-0.46481 1.2375,0.59969 2.25,1.29951 2.25,1.55516 0,0.76522 -0.51861,0.54424 -2.55887,-1.09035 z m 49.30887,-0.0168 c -3.73844,-2.02814 -3.51088,-2.87286 0.25,-0.92803 1.65,0.85325 3,1.7648 3,2.02568 0,0.6435 -0.10745,0.60721 -3.25,-1.09765 z m -62.48479,-7.25992 c -5.62914,-3.1924 -10.57914,-6.18335 -11,-6.64656 -0.94951,-1.04505 -0.98314,-1.06243 11.48479,5.93598 8.69937,4.88308 11.33238,6.60209 10,6.5287 -0.1375,-0.008 -4.85566,-2.62573 -10.48479,-5.81812 z M 436,296.57037 c 0,-0.275 0.9,-0.98167 2,-1.57037 1.1,-0.5887 2,-0.84537 2,-0.57037 0,0.275 -0.9,0.98167 -2,1.57037 -1.1,0.5887 -2,0.84537 -2,0.57037 z m -170.55887,-3.12554 c -1.86402,-1.49339 -1.85176,-1.51185 0.30887,-0.46481 1.2375,0.59969 2.25,1.29951 2.25,1.55516 0,0.76522 -0.51861,0.54424 -2.55887,-1.09035 z M 391,293.57037 c 0,-0.275 0.9,-0.98167 2,-1.57037 1.1,-0.5887 2,-0.84537 2,-0.57037 0,0.275 -0.9,0.98167 -2,1.57037 -1.1,0.5887 -2,0.84537 -2,0.57037 z M 881.87244,291.25 c -1.24387,-1.58606 -1.2085,-1.62143 0.37756,-0.37756 1.66575,1.30637 2.19548,2.12756 1.37244,2.12756 -0.20765,0 -0.99515,-0.7875 -1.75,-1.75 z M 446,290.57037 c 0,-0.275 0.9,-0.98167 2,-1.57037 1.1,-0.5887 2,-0.84537 2,-0.57037 0,0.275 -0.9,0.98167 -2,1.57037 -1.1,0.5887 -2,0.84537 -2,0.57037 z m -190.49292,-2.55892 c -0.35034,-0.56686 0.0511,-0.7345 0.94098,-0.39301 1.73242,0.66479 2.04939,1.38156 0.61096,1.38156 -0.51754,0 -1.21592,-0.44485 -1.55194,-0.98855 z M 202.75,286.42803 c -3.73844,-2.02814 -3.51088,-2.87286 0.25,-0.92803 1.65,0.85325 3,1.7648 3,2.02568 0,0.6435 -0.10745,0.60721 -3.25,-1.09765 z M 451,287.60699 c 0,-0.21616 0.69837,-0.661 1.55194,-0.98855 0.88992,-0.34149 1.29132,-0.17385 0.94098,0.39301 C 452.90566,287.96166 451,288.4169 451,287.60699 Z m -45,-3 c 0,-0.21616 0.69837,-0.661 1.55194,-0.98855 0.88992,-0.34149 1.29132,-0.17385 0.94098,0.39301 C 407.90566,284.96166 406,285.4169 406,284.60699 Z m -210.25,-2.17896 c -3.73844,-2.02814 -3.51088,-2.87286 0.25,-0.92803 1.65,0.85325 3,1.7648 3,2.02568 0,0.6435 -0.10745,0.60721 -3.25,-1.09765 z m 50.69113,0.0168 c -1.86402,-1.49339 -1.85176,-1.51185 0.30887,-0.46481 1.2375,0.59969 2.25,1.29951 2.25,1.55516 0,0.76522 -0.51861,0.54424 -2.55887,-1.09035 z M 458,283.55136 c 0,-0.275 1.35,-1.19811 3,-2.05136 1.65,-0.85325 3,-1.32636 3,-1.05136 0,0.275 -1.35,1.19811 -3,2.05136 -1.65,0.85325 -3,1.32636 -3,1.05136 z m -269.25,-5.12333 c -3.73844,-2.02814 -3.51088,-2.87286 0.25,-0.92803 1.65,0.85325 3,1.7648 3,2.02568 0,0.6435 -0.10745,0.60721 -3.25,-1.09765 z m 49,-0.49612 c -2.0625,-1.08883 -3.75,-2.20308 -3.75,-2.47612 0,-0.27304 1.8,0.42185 4,1.54421 2.2,1.12236 4,2.2565 4,2.52032 0,0.65417 -0.007,0.65155 -4.25,-1.58841 z M 465,279.57037 c 0,-0.275 0.9,-0.98167 2,-1.57037 1.1,-0.5887 2,-0.84537 2,-0.57037 0,0.275 -0.9,0.98167 -2,1.57037 -1.1,0.5887 -2,0.84537 -2,0.57037 z M 1265.2522,273.5 c 0.011,-2.2 0.2159,-2.98225 0.4551,-1.73834 0.2392,1.24391 0.2301,3.04391 -0.02,4 -0.2503,0.95609 -0.446,-0.0617 -0.4349,-2.26166 z M 181.75,274.42803 c -3.73844,-2.02814 -3.51088,-2.87286 0.25,-0.92803 1.65,0.85325 3,1.7648 3,2.02568 0,0.6435 -0.10745,0.60721 -3.25,-1.09765 z m -7,-4 c -3.73844,-2.02814 -3.51088,-2.87286 0.25,-0.92803 1.65,0.85325 3,1.7648 3,2.02568 0,0.6435 -0.10745,0.60721 -3.25,-1.09765 z M 479,271.55136 c 0,-0.275 1.35,-1.19811 3,-2.05136 1.65,-0.85325 3,-1.32636 3,-1.05136 0,0.275 -1.35,1.19811 -3,2.05136 -1.65,0.85325 -3,1.32636 -3,1.05136 z m -49,-0.94437 c 0,-0.21616 0.69837,-0.661 1.55194,-0.98855 0.88992,-0.34149 1.29132,-0.17385 0.94098,0.39301 C 431.90566,270.96166 430,271.4169 430,270.60699 Z m -261.55887,-4.16216 c -1.86402,-1.49339 -1.85176,-1.51185 0.30887,-0.46481 1.2375,0.59969 2.25,1.29951 2.25,1.55516 0,0.76522 -0.51861,0.54424 -2.55887,-1.09035 z M 486,267.57037 c 0,-0.275 0.9,-0.98167 2,-1.57037 1.1,-0.5887 2,-0.84537 2,-0.57037 0,0.275 -0.9,0.98167 -2,1.57037 -1.1,0.5887 -2,0.84537 -2,0.57037 z m -324.55887,-5.12554 c -1.86402,-1.49339 -1.85176,-1.51185 0.30887,-0.46481 1.2375,0.59969 2.25,1.29951 2.25,1.55516 0,0.76522 -0.51861,0.54424 -2.55887,-1.09035 z m 157.46784,-3.22944 c -4.14892,-2.18508 -10.88823,-5.98536 -14.97623,-8.44507 C 299.84473,248.3106 284.125,239.19044 269,230.50328 253.875,221.81612 240.44474,213.76155 239.15499,212.60422 233.93519,207.92041 234,208.62113 234,156.86538 c 0,-45.94804 0.0934,-48.42661 1.97017,-52.29966 2.30897,-4.764898 4.5262,-6.308005 30.64598,-21.328404 10.38612,-5.972626 27.91247,-16.11937 38.94745,-22.548318 13.26427,-7.727731 21.0587,-11.687731 23,-11.68526 4.37948,0.0056 8.70411,3.13978 11.43481,8.287198 2.36191,4.452239 2.38333,4.685342 0.74595,8.118967 -2.36205,4.953266 -5.74456,7.171072 -45.50555,29.836577 l -35.2612,20.10042 0.2612,40.0071 0.26119,40.0071 11,6.43769 c 6.05,3.54073 17.75,10.36851 26,15.17285 8.25,4.80435 18.19503,10.60114 22.10006,12.88177 3.90504,2.28062 8.11997,4.14659 9.36653,4.14659 2.33371,0 62.76073,-33.80386 66.78341,-37.35973 2.24024,-1.98027 2.25,-2.12053 2.25,-32.34597 0,-25.85331 -0.21916,-30.44117 -1.4772,-30.92392 -1.53884,-0.59051 -2.11851,-0.2911 -22.5228,11.63384 -42.09093,24.5993 -43.49429,25.25264 -49.24401,22.92563 -3.55805,-1.44001 -28.40087,-15.23939 -38.71619,-21.50559 -12.05699,-7.32422 -13.90935,-14.32409 -5.76274,-21.77679 6.16052,-5.63579 8.69368,-5.06838 30.01406,6.72289 9.57651,5.2963 17.9823,9.62964 18.67954,9.62964 0.69725,0 4.02658,-1.6785 7.39853,-3.72999 3.37195,-2.0515 7.48081,-4.43779 9.13081,-5.30287 1.65,-0.86508 15.92171,-9.08659 31.71492,-18.27001 C 402.78572,98.828236 406.42259,97 410.43012,97 c 3.58377,0 5.20276,0.616775 7.94954,3.02848 5.51345,4.84087 5.95685,9.9119 5.33677,61.03474 -0.56847,46.86856 -0.55463,46.74701 -5.87142,51.55926 -2.13008,1.92795 -9.60778,6.42547 -29.34501,17.64979 -3.85,2.18945 -12.85,7.4422 -20,11.67279 -22.62154,13.38495 -35.2519,20.14042 -38.70246,20.70037 -2.62331,0.4257 -4.9727,-0.31438 -10.88857,-3.43004 z M 444,262.60699 c 0,-0.21616 0.69837,-0.661 1.55194,-0.98855 0.88992,-0.34149 1.29132,-0.17385 0.94098,0.39301 C 445.90566,262.96166 444,263.4169 444,262.60699 Z m 52.73333,-1.73108 c 0.67834,-0.68342 1.48524,-0.99067 1.79313,-0.68278 0.30789,0.30789 -0.24711,0.86705 -1.23333,1.24258 -1.4252,0.54268 -1.54006,0.42782 -0.5598,-0.5598 z M 205.75,259.42803 c -3.73844,-2.02814 -3.51088,-2.87286 0.25,-0.92803 1.65,0.85325 3,1.7648 3,2.02568 0,0.6435 -0.10745,0.60721 -3.25,-1.09765 z M 448,260.55136 c 0,-0.275 1.35,-1.19811 3,-2.05136 1.65,-0.85325 3,-1.32636 3,-1.05136 0,0.275 -1.35,1.19811 -3,2.05136 -1.65,0.85325 -3,1.32636 -3,1.05136 z m -293.55887,-2.10653 c -1.86402,-1.49339 -1.85176,-1.51185 0.30887,-0.46481 1.2375,0.59969 2.25,1.29951 2.25,1.55516 0,0.76522 -0.51861,0.54424 -2.55887,-1.09035 z M 500,259.57037 c 0,-0.275 0.9,-0.98167 2,-1.57037 1.1,-0.5887 2,-0.84537 2,-0.57037 0,0.275 -0.9,0.98167 -2,1.57037 -1.1,0.5887 -2,0.84537 -2,0.57037 z m -351.25,-4.14234 c -3.73844,-2.02814 -3.51088,-2.87286 0.25,-0.92803 1.65,0.85325 3,1.7648 3,2.02568 0,0.6435 -0.10745,0.60721 -3.25,-1.09765 z M 455,256.57037 c 0,-0.275 0.9,-0.98167 2,-1.57037 1.1,-0.5887 2,-0.84537 2,-0.57037 0,0.275 -0.9,0.98167 -2,1.57037 -1.1,0.5887 -2,0.84537 -2,0.57037 z m 50,-0.019 c 0,-0.275 1.35,-1.19811 3,-2.05136 1.65,-0.85325 3,-1.32636 3,-1.05136 0,0.275 -1.35,1.19811 -3,2.05136 -1.65,0.85325 -3,1.32636 -3,1.05136 z m -307.55887,-2.10653 c -1.86402,-1.49339 -1.85176,-1.51185 0.30887,-0.46481 1.2375,0.59969 2.25,1.29951 2.25,1.55516 0,0.76522 -0.51861,0.54424 -2.55887,-1.09035 z M 141.75,251.42803 c -3.73844,-2.02814 -3.51088,-2.87286 0.25,-0.92803 1.65,0.85325 3,1.7648 3,2.02568 0,0.6435 -0.10745,0.60721 -3.25,-1.09765 z m 49,-0.49612 c -2.0625,-1.08883 -3.75,-2.20308 -3.75,-2.47612 0,-0.27304 1.8,0.42185 4,1.54421 2.2,1.12236 4,2.2565 4,2.52032 0,0.65417 -0.007,0.65155 -4.25,-1.58841 z M 463,251.60699 c 0,-0.21616 0.69837,-0.661 1.55194,-0.98855 0.88992,-0.34149 1.29132,-0.17385 0.94098,0.39301 C 464.90566,251.96166 463,252.4169 463,251.60699 Z m 51,-0.0366 c 0,-0.275 0.9,-0.98167 2,-1.57037 1.1,-0.5887 2,-0.84537 2,-0.57037 0,0.275 -0.9,0.98167 -2,1.57037 -1.1,0.5887 -2,0.84537 -2,0.57037 z M 131.75941,245.6458 c -7.76048,-4.45256 -8.76997,-5.82436 -1.25941,-1.71142 5.46699,2.99384 8.60218,5.11286 7.45,5.03534 -0.2475,-0.0166 -3.03327,-1.51242 -6.19059,-3.32392 z M 521,247.57037 c 0,-0.275 0.9,-0.98167 2,-1.57037 1.1,-0.5887 2,-0.84537 2,-0.57037 0,0.275 -0.9,0.98167 -2,1.57037 -1.1,0.5887 -2,0.84537 -2,0.57037 z M 586.19495,245.5 c 0.0204,-1.65 0.2445,-2.20394 0.49804,-1.23097 0.25354,0.97297 0.23687,2.32297 -0.0371,3 -0.27393,0.67703 -0.48137,-0.11903 -0.46099,-1.76903 z m -407.75382,-2.05517 c -1.86402,-1.49339 -1.85176,-1.51185 0.30887,-0.46481 1.2375,0.59969 2.25,1.29951 2.25,1.55516 0,0.76522 -0.51861,0.54424 -2.55887,-1.09035 z M 526,244.55136 c 0,-0.275 1.35,-1.19811 3,-2.05136 1.65,-0.85325 3,-1.32636 3,-1.05136 0,0.275 -1.35,1.19811 -3,2.05136 -1.65,0.85325 -3,1.32636 -3,1.05136 z M 825.33621,237 c 0,-4.125 0.17651,-5.8125 0.39226,-3.75 0.21574,2.0625 0.21574,5.4375 0,7.5 -0.21575,2.0625 -0.39226,0.375 -0.39226,-3.75 z M 172.75,240.42803 c -3.73844,-2.02814 -3.51088,-2.87286 0.25,-0.92803 1.65,0.85325 3,1.7648 3,2.02568 0,0.6435 -0.10745,0.60721 -3.25,-1.09765 z M 586.40249,227 c 0,-8.525 0.15337,-12.0125 0.34082,-7.75 0.18745,4.2625 0.18745,11.2375 0,15.5 -0.18745,4.2625 -0.34082,0.775 -0.34082,-7.75 z M 120.97251,239.34664 C 117.63717,237.1163 113,232.79251 113,231.91291 c 0,-0.3921 1.4625,0.7135 3.25,2.4569 1.7875,1.74339 4.375,3.92479 5.75,4.84755 1.375,0.92275 2.26263,1.70134 1.97251,1.73019 -0.29013,0.0289 -1.64013,-0.69156 -3,-1.60091 z M 533,240.55136 c 0,-0.275 1.35,-1.19811 3,-2.05136 1.65,-0.85325 3,-1.32636 3,-1.05136 0,0.275 -1.35,1.19811 -3,2.05136 -1.65,0.85325 -3,1.32636 -3,1.05136 z m -367.25,-4.12333 c -3.73844,-2.02814 -3.51088,-2.87286 0.25,-0.92803 1.65,0.85325 3,1.7648 3,2.02568 0,0.6435 -0.10745,0.60721 -3.25,-1.09765 z m -7,-4 c -3.73844,-2.02814 -3.51088,-2.87286 0.25,-0.92803 1.65,0.85325 3,1.7648 3,2.02568 0,0.6435 -0.10745,0.60721 -3.25,-1.09765 z M 547,232.66733 C 547,232.05747 556.75537,226 557.73753,226 c 0.78843,0 -1.37839,1.52013 -6.98753,4.9021 -2.0625,1.24356 -3.75,2.03792 -3.75,1.76523 z m -395.25,-4.2393 c -3.73844,-2.02814 -3.51088,-2.87286 0.25,-0.92803 1.65,0.85325 3,1.7648 3,2.02568 0,0.6435 -0.10745,0.60721 -3.25,-1.09765 z M 112.19495,226.5 c 0.0204,-1.65 0.2445,-2.20394 0.49804,-1.23097 0.25354,0.97297 0.23687,2.32297 -0.037,3 -0.27393,0.67703 -0.48137,-0.11903 -0.46099,-1.76903 z m 447.884,0.91667 c 0.048,-1.16495 0.28494,-1.4019 0.60416,-0.60417 0.28887,0.72187 0.25335,1.58437 -0.0789,1.91667 -0.33229,0.33229 -0.56864,-0.25834 -0.52522,-1.3125 z M 505,227.54065 c 0,-0.275 1.8,-1.41829 4,-2.54065 2.2,-1.12236 4,-1.81565 4,-1.54065 0,0.275 -1.8,1.41829 -4,2.54065 -2.2,1.12236 -4,1.81565 -4,1.54065 z m -360.25,-3.11262 c -3.73844,-2.02814 -3.51088,-2.87286 0.25,-0.92803 1.65,0.85325 3,1.7648 3,2.02568 0,0.6435 -0.10745,0.60721 -3.25,-1.09765 z M 514,222.57037 c 0,-0.275 0.9,-0.98167 2,-1.57037 1.1,-0.5887 2,-0.84537 2,-0.57037 0,0.275 -0.9,0.98167 -2,1.57037 -1.1,0.5887 -2,0.84537 -2,0.57037 z M 95.299664,217 c 0,-3.025 0.187466,-4.2625 0.41659,-2.75 0.229125,1.5125 0.229125,3.9875 0,5.5 -0.229124,1.5125 -0.41659,0.275 -0.41659,-2.75 z M 135.75,219.42803 c -3.73844,-2.02814 -3.51088,-2.87286 0.25,-0.92803 1.65,0.85325 3,1.7648 3,2.02568 0,0.6435 -0.10745,0.60721 -3.25,-1.09765 z M 115.5,218 c 0.99549,-1.1 2.03498,-2 2.30998,-2 0.275,0 -0.31449,0.9 -1.30998,2 -0.99549,1.1 -2.03498,2 -2.30998,2 -0.275,0 0.31449,-0.9 1.30998,-2 z m 403.5,1.57037 c 0,-0.275 0.9,-0.98167 2,-1.57037 1.1,-0.5887 2,-0.84537 2,-0.57037 0,0.275 -0.9,0.98167 -2,1.57037 -1.1,0.5887 -2,0.84537 -2,0.57037 z m -389.49292,-3.55892 c -0.35034,-0.56686 0.0511,-0.7345 0.94098,-0.39301 1.73242,0.66479 2.04939,1.38156 0.61096,1.38156 -0.51754,0 -1.21592,-0.44485 -1.55194,-0.98855 z M 526,215.57037 c 0,-0.275 0.9,-0.98167 2,-1.57037 1.1,-0.5887 2,-0.84537 2,-0.57037 0,0.275 -0.9,0.98167 -2,1.57037 -1.1,0.5887 -2,0.84537 -2,0.57037 z m -403.23834,-1.27763 c 1.24391,-0.23919 3.04391,-0.23011 4,0.0202 0.95609,0.25029 -0.0617,0.446 -2.26166,0.4349 -2.2,-0.0111 -2.98225,-0.21589 -1.73834,-0.45508 z M 531,212.60699 c 0,-0.21616 0.69837,-0.661 1.55194,-0.98855 0.88992,-0.34149 1.29132,-0.17385 0.94098,0.39301 C 532.90566,212.96166 531,213.4169 531,212.60699 Z M 97.22619,209.42128 c 0.949405,-0.99123 1.94144,-1.58698 2.204522,-1.3239 0.263082,0.26308 -0.513704,1.07408 -1.72619,1.80223 -2.106309,1.26492 -2.127619,1.24361 -0.478332,-0.47833 z M 540,207.57037 c 0,-0.275 0.9,-0.98167 2,-1.57037 1.1,-0.5887 2,-0.84537 2,-0.57037 0,0.275 -0.9,0.98167 -2,1.57037 -1.1,0.5887 -2,0.84537 -2,0.57037 z m -435.26667,-2.69446 c 0.67834,-0.68342 1.48524,-0.99067 1.79313,-0.68278 0.30789,0.30789 -0.24711,0.86705 -1.23333,1.24258 -1.4252,0.54268 -1.54006,0.42782 -0.5598,-0.5598 z M 108,203.55136 c 0,-0.275 1.35,-1.19811 3,-2.05136 1.65,-0.85325 3,-1.32636 3,-1.05136 0,0.275 -1.35,1.19811 -3,2.05136 -1.65,0.85325 -3,1.32636 -3,1.05136 z M 545,201 c -0.90129,-0.58246 -1.02463,-0.97549 -0.30902,-0.98469 0.65504,-0.008 1.4691,0.43469 1.80902,0.98469 0.7673,1.24153 0.42112,1.24153 -1.5,0 z m -430,-1.42963 c 0,-0.275 0.9,-0.98167 2,-1.57037 1.1,-0.5887 2,-0.84537 2,-0.57037 0,0.275 -0.9,0.98167 -2,1.57037 -1.1,0.5887 -2,0.84537 -2,0.57037 z M 887.3605,191 c 0,-5.225 0.16854,-7.3625 0.37454,-4.75 0.206,2.6125 0.206,6.8875 0,9.5 -0.206,2.6125 -0.37454,0.475 -0.37454,-4.75 z M 536.75,196.42803 c -3.73844,-2.02814 -3.51088,-2.87286 0.25,-0.92803 1.65,0.85325 3,1.7648 3,2.02568 0,0.6435 -0.10745,0.60721 -3.25,-1.09765 z M 75,194.5 c 1.291745,-1.375 2.573628,-2.5 2.848628,-2.5 0.275,0 -0.556883,1.125 -1.848628,2.5 -1.291745,1.375 -2.573628,2.5 -2.848628,2.5 -0.275,0 0.556883,-1.125 1.848628,-2.5 z m 47,1.07037 c 0,-0.275 0.9,-0.98167 2,-1.57037 1.1,-0.5887 2,-0.84537 2,-0.57037 0,0.275 -0.9,0.98167 -2,1.57037 -1.1,0.5887 -2,0.84537 -2,0.57037 z m 408.44113,-3.12554 c -1.86402,-1.49339 -1.85176,-1.51185 0.30887,-0.46481 1.2375,0.59969 2.25,1.29951 2.25,1.55516 0,0.76522 -0.51861,0.54424 -2.55887,-1.09035 z M 127,192.57037 c 0,-0.275 0.9,-0.98167 2,-1.57037 1.1,-0.5887 2,-0.84537 2,-0.57037 0,0.275 -0.9,0.98167 -2,1.57037 -1.1,0.5887 -2,0.84537 -2,0.57037 z M 825.43125,168.5 c 6.6e-4,-13.2 0.14295,-18.46169 0.31621,-11.69265 0.17326,6.76904 0.17273,17.56904 -0.001,24 C 825.57236,187.23831 825.4306,181.7 825.43125,168.5 Z M 80,190.60699 c 0,-0.21616 0.698372,-0.661 1.551938,-0.98855 0.889925,-0.34149 1.291322,-0.17385 0.940983,0.39301 C 81.905663,190.96166 80,191.4169 80,190.60699 Z m 493.50708,-0.59554 c -0.35034,-0.56686 0.0511,-0.7345 0.94098,-0.39301 1.73242,0.66479 2.04939,1.38156 0.61096,1.38156 -0.51754,0 -1.21592,-0.44485 -1.55194,-0.98855 z m -50.06595,-1.56662 c -1.86402,-1.49339 -1.85176,-1.51185 0.30887,-0.46481 1.2375,0.59969 2.25,1.29951 2.25,1.55516 0,0.76522 -0.51861,0.54424 -2.55887,-1.09035 z M 84,188.57037 c 0,-0.275 0.9,-0.98167 2,-1.57037 1.1,-0.5887 2,-0.84537 2,-0.57037 0,0.275 -0.9,0.98167 -2,1.57037 -1.1,0.5887 -2,0.84537 -2,0.57037 z m 483.74074,-1.94418 c -4.80344,-2.95339 -6.14478,-4.34792 -2.24074,-2.32958 3.13456,1.62053 7.36317,4.63935 6.5,4.64038 -0.275,3.2e-4 -2.19167,-1.03953 -4.25926,-2.3108 z M 136,187.57037 c 0,-0.275 0.9,-0.98167 2,-1.57037 1.1,-0.5887 2,-0.84537 2,-0.57037 0,0.275 -0.9,0.98167 -2,1.57037 -1.1,0.5887 -2,0.84537 -2,0.57037 z m 381.75,-2.14234 c -3.73844,-2.02814 -3.51088,-2.87286 0.25,-0.92803 1.65,0.85325 3,1.7648 3,2.02568 0,0.6435 -0.10745,0.60721 -3.25,-1.09765 z M 143,183.57037 c 0,-0.275 0.9,-0.98167 2,-1.57037 1.1,-0.5887 2,-0.84537 2,-0.57037 0,0.275 -0.9,0.98167 -2,1.57037 -1.1,0.5887 -2,0.84537 -2,0.57037 z m 366.44113,-3.12554 c -1.86402,-1.49339 -1.85176,-1.51185 0.30887,-0.46481 1.2375,0.59969 2.25,1.29951 2.25,1.55516 0,0.76522 -0.51861,0.54424 -2.55887,-1.09035 z M 98,180.57037 c 0,-0.275 0.9,-0.98167 2,-1.57037 1.1,-0.5887 2,-0.84537 2,-0.57037 0,0.275 -0.9,0.98167 -2,1.57037 -1.1,0.5887 -2,0.84537 -2,0.57037 z m 455.75,-2.14234 c -3.73844,-2.02814 -3.51088,-2.87286 0.25,-0.92803 1.65,0.85325 3,1.7648 3,2.02568 0,0.6435 -0.10745,0.60721 -3.25,-1.09765 z m -50,-1 c -3.73844,-2.02814 -3.51088,-2.87286 0.25,-0.92803 1.65,0.85325 3,1.7648 3,2.02568 0,0.6435 -0.10745,0.60721 -3.25,-1.09765 z M 103,177.55136 c 0,-0.275 1.35,-1.19811 3,-2.05136 1.65,-0.85325 3,-1.32636 3,-1.05136 0,0.275 -1.35,1.19811 -3,2.05136 -1.65,0.85325 -3,1.32636 -3,1.05136 z m 52.73333,-1.67545 c 0.67834,-0.68342 1.48524,-0.99067 1.79313,-0.68278 0.30789,0.30789 -0.24711,0.86705 -1.23333,1.24258 -1.4252,0.54268 -1.54006,0.42782 -0.5598,-0.5598 z M 496.75,173.42803 c -3.73844,-2.02814 -3.51088,-2.87286 0.25,-0.92803 1.65,0.85325 3,1.7648 3,2.02568 0,0.6435 -0.10745,0.60721 -3.25,-1.09765 z m 47.75708,-0.41658 c -0.35034,-0.56686 0.0511,-0.7345 0.94098,-0.39301 1.73242,0.66479 2.04939,1.38156 0.61096,1.38156 -0.51754,0 -1.21592,-0.44485 -1.55194,-0.98855 z M 113,171.60699 c 0,-0.21616 0.69837,-0.661 1.55194,-0.98855 0.88992,-0.34149 1.29132,-0.17385 0.94098,0.39301 C 114.90566,171.96166 113,172.4169 113,171.60699 Z m 423.75,-3.17896 c -3.73844,-2.02814 -3.51088,-2.87286 0.25,-0.92803 1.65,0.85325 3,1.7648 3,2.02568 0,0.6435 -0.10745,0.60721 -3.25,-1.09765 z M 124,165.55136 c 0,-0.275 1.35,-1.19811 3,-2.05136 1.65,-0.85325 3,-1.32636 3,-1.05136 0,0.275 -1.35,1.19811 -3,2.05136 -1.65,0.85325 -3,1.32636 -3,1.05136 z m 405.75,-1.12333 c -3.73844,-2.02814 -3.51088,-2.87286 0.25,-0.92803 1.65,0.85325 3,1.7648 3,2.02568 0,0.6435 -0.10745,0.60721 -3.25,-1.09765 z m -53.30887,-2.9832 c -1.86402,-1.49339 -1.85176,-1.51185 0.30887,-0.46481 1.2375,0.59969 2.25,1.29951 2.25,1.55516 0,0.76522 -0.51861,0.54424 -2.55887,-1.09035 z M 131,161.55136 c 0,-0.275 1.35,-1.19811 3,-2.05136 1.65,-0.85325 3,-1.32636 3,-1.05136 0,0.275 -1.35,1.19811 -3,2.05136 -1.65,0.85325 -3,1.32636 -3,1.05136 z m 390.25,-2.1175 c -2.3375,-1.40097 -4.25,-2.78342 -4.25,-3.0721 0,-0.53885 6.74656,3.29214 8.45,4.79828 1.7187,1.51963 0.11775,0.86164 -4.2,-1.72618 z M 185,159.57037 c 0,-0.275 0.9,-0.98167 2,-1.57037 1.1,-0.5887 2,-0.84537 2,-0.57037 0,0.275 -0.9,0.98167 -2,1.57037 -1.1,0.5887 -2,0.84537 -2,0.57037 z m 284.44113,-2.12554 c -1.86402,-1.49339 -1.85176,-1.51185 0.30887,-0.46481 1.2375,0.59969 2.25,1.29951 2.25,1.55516 0,0.76522 -0.51861,0.54424 -2.55887,-1.09035 z M 194,154.57037 c 0,-0.275 0.9,-0.98167 2,-1.57037 1.1,-0.5887 2,-0.84537 2,-0.57037 0,0.275 -0.9,0.98167 -2,1.57037 -1.1,0.5887 -2,0.84537 -2,0.57037 z m 268.44113,-1.12554 c -1.86402,-1.49339 -1.85176,-1.51185 0.30887,-0.46481 1.2375,0.59969 2.25,1.29951 2.25,1.55516 0,0.76522 -0.51861,0.54424 -2.55887,-1.09035 z m 49,0 c -1.86402,-1.49339 -1.85176,-1.51185 0.30887,-0.46481 1.2375,0.59969 2.25,1.29951 2.25,1.55516 0,0.76522 -0.51861,0.54424 -2.55887,-1.09035 z M 145,153.57037 c 0,-0.275 0.9,-0.98167 2,-1.57037 1.1,-0.5887 2,-0.84537 2,-0.57037 0,0.275 -0.9,0.98167 -2,1.57037 -1.1,0.5887 -2,0.84537 -2,0.57037 z m 312.44113,-3.12554 c -1.86402,-1.49339 -1.85176,-1.51185 0.30887,-0.46481 1.2375,0.59969 2.25,1.29951 2.25,1.55516 0,0.76522 -0.51861,0.54424 -2.55887,-1.09035 z m 47,-1 c -1.86402,-1.49339 -1.85176,-1.51185 0.30887,-0.46481 1.2375,0.59969 2.25,1.29951 2.25,1.55516 0,0.76522 -0.51861,0.54424 -2.55887,-1.09035 z m -52,-2 c -1.86402,-1.49339 -1.85176,-1.51185 0.30887,-0.46481 1.2375,0.59969 2.25,1.29951 2.25,1.55516 0,0.76522 -0.51861,0.54424 -2.55887,-1.09035 z m 46.30887,-1.0168 c -3.73844,-2.02814 -3.51088,-2.87286 0.25,-0.92803 1.65,0.85325 3,1.7648 3,2.02568 0,0.6435 -0.10745,0.60721 -3.25,-1.09765 z M 159,145.57037 c 0,-0.275 0.9,-0.98167 2,-1.57037 1.1,-0.5887 2,-0.84537 2,-0.57037 0,0.275 -0.9,0.98167 -2,1.57037 -1.1,0.5887 -2,0.84537 -2,0.57037 z M 443.68902,141.75 c -3.11373,-3.08374 -3.12577,-3.1225 -0.23532,-0.75775 1.67547,1.37074 3.4738,2.83324 3.9963,3.25 0.5225,0.41676 0.62839,0.75775 0.23531,0.75775 -0.39307,0 -2.1914,-1.4625 -3.99629,-3.25 z m 48.75211,0.69483 c -1.86402,-1.49339 -1.85176,-1.51185 0.30887,-0.46481 1.2375,0.59969 2.25,1.29951 2.25,1.55516 0,0.76522 -0.51861,0.54424 -2.55887,-1.09035 z M 165,141.9512 c 3.4686,-2.35442 5.44393,-3.03957 3,-1.04055 -1.375,1.12468 -2.95,2.04799 -3.5,2.0518 -0.55,0.004 -0.325,-0.45125 0.5,-1.01125 z M 215.5,140 c 0.99549,-1.1 2.03498,-2 2.30998,-2 0.275,0 -0.31449,0.9 -1.30998,2 -0.99549,1.1 -2.03498,2 -2.30998,2 -0.275,0 0.31449,-0.9 1.30998,-2 z m -44,-1.72572 c 0.55,-0.52481 2.8,-1.96493 5,-3.20026 2.2,-1.23533 3.1,-1.49805 2,-0.58383 -2.23423,1.8569 -8.56932,5.28155 -7,3.78409 z m 905.2617,0.0185 c 1.2439,-0.23919 3.0439,-0.23011 4,0.0202 0.956,0.25029 -0.062,0.446 -2.2617,0.4349 -2.2,-0.0111 -2.9823,-0.21589 -1.7383,-0.45508 z m 8.9883,0.045 c 0.6875,-0.27741 1.8125,-0.27741 2.5,0 0.6875,0.27741 0.125,0.50439 -1.25,0.50439 -1.375,0 -1.9375,-0.22698 -1.25,-0.50439 z m 79.5,-0.0832 c 5.3625,-0.17981 14.1375,-0.17981 19.5,0 5.3625,0.17981 0.975,0.32692 -9.75,0.32692 -10.725,0 -15.1125,-0.14711 -9.75,-0.32692 z m -682.80887,-1.80967 c -1.86402,-1.49339 -1.85176,-1.51185 0.30887,-0.46481 1.2375,0.59969 2.25,1.29951 2.25,1.55516 0,0.76522 -0.51861,0.54424 -2.55887,-1.09035 z M 438.15789,133 c 0,-1.375 0.22698,-1.9375 0.50439,-1.25 0.27741,0.6875 0.27741,1.8125 0,2.5 -0.27741,0.6875 -0.50439,0.125 -0.50439,-1.25 z m 39.34919,1.01145 c -0.35034,-0.56686 0.0511,-0.7345 0.94098,-0.39301 1.73242,0.66479 2.04939,1.38156 0.61096,1.38156 -0.51754,0 -1.21592,-0.44485 -1.55194,-0.98855 z m 351.76195,0.29556 c 0.97297,-0.25354 2.32297,-0.23687 3,0.0371 0.67703,0.27393 -0.11903,0.48137 -1.76903,0.46099 -1.65,-0.0204 -2.20394,-0.2445 -1.23097,-0.49804 z m 7.54347,0.01 c 0.72187,-0.28887 1.58438,-0.25335 1.91667,0.0789 0.33229,0.33229 -0.25834,0.56864 -1.3125,0.52522 -1.16495,-0.048 -1.4019,-0.28494 -0.60417,-0.60416 z M 181,132.60699 c 0,-0.21616 0.69837,-0.661 1.55194,-0.98855 0.88992,-0.34149 1.29132,-0.17385 0.94098,0.39301 C 182.90566,132.96166 181,133.4169 181,132.60699 Z m 4,-2.05563 c 0,-0.275 1.35,-1.19811 3,-2.05136 1.65,-0.85325 3,-1.32636 3,-1.05136 0,0.275 -1.35,1.19811 -3,2.05136 -1.65,0.85325 -3,1.32636 -3,1.05136 z m 284.75,-1.12333 c -3.73844,-2.02814 -3.51088,-2.87286 0.25,-0.92803 1.65,0.85325 3,1.7648 3,2.02568 0,0.6435 -0.10745,0.60721 -3.25,-1.09765 z M 441,124.62244 c 0,-0.20765 0.7875,-0.99515 1.75,-1.75 1.58606,-1.24387 1.62143,-1.2085 0.37756,0.37756 C 441.82119,124.91575 441,125.44548 441,124.62244 Z M 211.87244,122.25 c -1.24387,-1.58606 -1.2085,-1.62143 0.37756,-0.37756 1.66575,1.30637 2.19548,2.12756 1.37244,2.12756 -0.20765,0 -0.99515,-0.7875 -1.75,-1.75 z m -12.13911,-0.37409 c 0.67834,-0.68342 1.48524,-0.99067 1.79313,-0.68278 0.30789,0.30789 -0.24711,0.86705 -1.23333,1.24258 -1.4252,0.54268 -1.54006,0.42782 -0.5598,-0.5598 z M 457,122 c -0.90129,-0.58246 -1.02463,-0.97549 -0.30902,-0.98469 0.65504,-0.008 1.4691,0.43469 1.80902,0.98469 0.7673,1.24153 0.42112,1.24153 -1.5,0 z m -252.75,-1.68933 c 0.9625,-0.25152 2.5375,-0.25152 3.5,0 0.9625,0.25153 0.175,0.45733 -1.75,0.45733 -1.925,0 -2.7125,-0.2058 -1.75,-0.45733 z m 617.5625,-12.99378 c 0.72187,-0.28887 1.58438,-0.25335 1.91667,0.0789 0.33229,0.3323 -0.25834,0.56864 -1.3125,0.52522 -1.16495,-0.048 -1.4019,-0.28494 -0.60417,-0.60416 z"
         id="path12842" />
      <path
         style="fill:#e04f04"
         d="m 322.5,636.88341 c -6.47742,-3.44359 -45.18544,-25.67532 -55.5,-31.8761 -8.2732,-4.97358 -61.01907,-35.44908 -66.5,-38.42236 -1.1,-0.59672 -2.675,-1.58977 -3.5,-2.20676 -0.825,-0.617 -3.975,-2.4883 -7,-4.15844 -3.025,-1.67015 -17.65,-10.10148 -32.5,-18.73629 C 142.65,532.84865 119.475,519.45107 106,511.71107 78.948666,496.17285 74.794916,493.33802 73.115132,489.26795 72.272477,487.22622 72.041922,448.6708 72.236378,342.31556 L 72.5,198.13112 l 2.973963,-3.10404 c 1.635679,-1.70723 4.110679,-3.68617 5.5,-4.39764 1.38932,-0.71148 8.601037,-4.80147 16.026037,-9.08887 7.425,-4.28741 15.3,-8.81758 17.5,-10.06706 5.00798,-2.84426 19.01571,-10.87133 36.32683,-20.81695 C 158.15659,146.44545 164.31105,143 164.50342,143 c 0.19238,0 4.01583,-2.25 8.49658,-5 4.48075,-2.75 8.34644,-5 8.59043,-5 0.24399,0 3.69845,-1.96515 7.67659,-4.367 10.94556,-6.60852 13.29349,-7.633 17.49348,-7.633 4.55958,0 9.46387,4.11978 11.21283,9.4192 1.32215,4.00615 0.32955,6.99981 -3.61972,10.91705 -2.33567,2.31673 -31.64144,19.73716 -54.82709,32.59126 -2.76459,1.53268 -6.60152,3.7007 -8.52652,4.81783 -3.90957,2.26881 -35.73308,20.38249 -43.5,24.75984 -2.75,1.54987 -6.22855,3.44874 -7.730119,4.21971 -1.501566,0.77097 -2.942945,1.74612 -3.203065,2.167 -0.746143,1.20728 -1.803732,262.75295 -1.075871,266.06688 0.576519,2.62488 3.051591,4.34679 21.330625,14.83981 11.37314,6.52871 25.17843,14.48883 30.67843,17.68916 5.5,3.20032 21.7,12.54237 36,20.76009 14.3,8.21772 28.025,16.17432 30.5,17.68132 2.475,1.507 8.775,5.13754 14,8.06785 5.225,2.93032 12.84999,7.33752 16.94442,9.79378 4.09443,2.45626 9.26943,5.48631 11.5,6.73344 2.23057,1.24713 19.28303,11.08937 37.89436,21.87165 C 312.9501,604.17814 328.37585,613 328.61821,613 c 0.24236,0 6.38991,-3.53123 13.66122,-7.84717 17.34317,-10.29417 58.93201,-34.59967 74.72057,-43.66846 6.875,-3.94894 17.9,-10.325 24.5,-14.16904 6.6,-3.84403 20.55,-11.94562 31,-18.00353 10.45,-6.05791 24.175,-14.06883 30.5,-17.80204 20.02823,-11.82128 35.2448,-20.6569 43.5,-25.25861 4.4,-2.4527 9.4625,-5.56049 11.25,-6.9062 L 561,476.89822 V 351.44911 226 l -2.05533,0 c -1.13044,0 -5.51794,2.17499 -9.75,4.83332 -4.23207,2.65832 -16.46967,9.80824 -27.19467,15.8887 -10.725,6.08047 -21.075,11.95128 -23,13.04626 -5.96736,3.39434 -42.17242,24.31856 -48.5,28.0299 -3.3,1.93557 -12.075,6.96827 -19.5,11.18379 -7.425,4.21552 -15.075,8.58952 -17,9.72 -3.26477,1.91727 -50.5554,29.2919 -57.75,33.42913 -18.44712,10.60795 -24.99952,13.86841 -27.83531,13.85078 -1.60308,-0.01 -5.16469,-1.29638 -7.91469,-2.85871 -12.85311,-7.30211 -89.76113,-51.48443 -150,-86.17239 -20.35,-11.71835 -39.89604,-22.91364 -43.43563,-24.87843 -3.5396,-1.96479 -8.21069,-5.24591 -10.38021,-7.29138 -3.78429,-3.5679 -3.92475,-3.92535 -3.45667,-8.79675 C 113.9023,218.96142 117.6523,215 123.6255,215 c 4.8283,0 5.04975,0.11136 39.3745,19.80038 12.925,7.41392 30.025,17.18974 38,21.72406 7.975,4.53431 18.55,10.61167 23.5,13.50523 4.95,2.89356 13.5,7.81536 19,10.93734 14.45181,8.20332 17.96405,10.22119 28,16.08669 4.95,2.89302 11.925,6.90987 15.5,8.92633 3.575,2.01646 14.00679,8.02087 23.18176,13.34313 9.17496,5.32226 17.46358,9.67684 18.41914,9.67684 1.88583,0 2.93928,-0.57234 30.3991,-16.51577 16.62247,-9.65116 39.50795,-22.90107 47.5,-27.50086 1.65,-0.94965 7.05,-4.09217 12,-6.98337 4.95,-2.8912 10.35,-6.0361 12,-6.98867 1.65,-0.95256 5.3823,-3.1448 8.29401,-4.87163 2.9117,-1.72684 5.48624,-3.1397 5.7212,-3.1397 0.23495,0 3.92765,-2.08287 8.20599,-4.6286 11.5801,-6.89048 11.86483,-7.05522 37.7788,-21.85869 13.2,-7.54056 26.475,-15.18373 29.5,-16.98484 3.025,-1.8011 7.525,-4.3948 10,-5.76378 11.70211,-6.47271 17,-9.97516 17,-11.23875 0,-0.75837 -1.2375,-2.02435 -2.75,-2.81328 -3.36366,-1.75452 -76.99183,-44.12916 -90.42114,-52.03936 -13.80398,-8.1309 -16.55162,-11.99564 -13.76225,-19.3576 1.58313,-4.17834 4.84206,-7.20734 8.49094,-7.89187 3.97235,-0.74522 9.04625,1.38139 21.53479,9.02582 4.98766,3.05302 9.26714,5.55095 9.50996,5.55095 0.24282,0 4.81914,2.64016 10.1696,5.86703 5.35045,3.22687 14.2281,8.4684 19.7281,11.64785 9.45057,5.46321 30.44888,17.65748 37,21.48688 1.65,0.96449 5.7,3.3074 9,5.20646 3.3,1.89907 9.04543,5.3291 12.76761,7.62231 3.72219,2.29321 7.18874,4.16947 7.70344,4.16947 0.51471,0 2.98178,2.07531 5.48239,4.6118 L 586,200.2236 v 141.7632 c 0,77.96976 -0.29531,143.23976 -0.65625,145.04445 -0.99137,4.95683 -6.56649,9.62955 -21.94154,18.39003 -13.56579,7.7296 -37.18427,21.33387 -64.40221,37.09576 -7.425,4.29981 -17.1,9.81459 -21.5,12.25506 -7.78181,4.31622 -13.65197,7.72241 -37.5,21.75957 -6.325,3.72295 -13.525,7.89207 -16,9.26471 -4.36833,2.42268 -23.90507,13.65493 -50.5,29.03395 -32.86857,19.00686 -40.88972,23.35285 -43.83719,23.75166 -2.00263,0.27097 -4.63008,-0.3521 -7.16281,-1.69858 z"
         id="path12841" />
      <path
         style="fill:#5a0287"
         d="m 325,591.73425 c -2.93303,-1.32619 -35.44567,-19.69176 -42,-23.72475 -2.475,-1.5229 -24.75,-14.37678 -49.5,-28.56417 -24.75,-14.18739 -49.275,-28.337 -54.5,-31.44359 -5.225,-3.10659 -11.975,-7.01158 -15,-8.67775 -3.025,-1.66616 -7.075,-3.94086 -9,-5.05488 -1.925,-1.11401 -10.56054,-6.08896 -19.1901,-11.05543 -8.62955,-4.96647 -16.8206,-9.85878 -18.20232,-10.87181 -5.08306,-3.72671 -5.11574,-4.1097 -4.99672,-58.56506 l 0.11087,-50.72319 2.65819,-3.48507 c 2.99152,-3.92208 8.16158,-5.85231 12.38927,-4.62548 1.50195,0.43584 10.48286,6.58945 19.95759,13.67469 30.43711,22.76097 66.7502,40.54422 97.77322,47.8815 40.1928,9.50605 79.86924,8.1107 111.23084,-3.91176 4.82304,-1.84892 25.41916,-10.77938 45.76916,-19.84547 38.06329,-16.95752 45.06905,-19.76508 66.5,-26.64989 15.63827,-5.02388 28.05264,-7.5003 48.62824,-9.70036 l 16.12824,-1.72453 4.49164,2.63227 c 7.97944,4.67627 7.75188,2.96917 7.75188,58.15127 0,51.44262 -0.009,51.55151 -4.64762,55.71767 -1.77659,1.59567 -19.10341,11.74079 -68.85238,40.31411 -33.34059,19.14918 -98.4197,56.68928 -117,67.49005 -16.19592,9.41472 -25.17801,14.05544 -27,13.94993 -0.55,-0.0318 -2.125,-0.56659 -3.5,-1.1883 z"
         id="path12840"
         sodipodi:nodetypes="ssssssssscsssssssscsssssss" />
      <path
         style="fill:#0b0a0b"
         d="m 829.5,579.39819 c -8.60877,-2.1774 -17.53398,-10.44776 -22.40122,-20.75761 C 800.5883,544.84998 797.04621,521.06066 797.0275,491 c -0.0339,-54.50423 11.62738,-81.84088 36.62943,-85.86735 20.78617,-3.34751 36.4194,11.42533 42.18928,39.86735 2.69979,13.30836 3.06994,16.35482 3.74283,30.80508 l 0.7114,15.27717 -8.90022,-0.29113 L 862.5,490.5 l -0.76486,-14 c -2.13433,-39.06693 -9.1987,-55.96094 -23.31133,-55.74759 -8.28743,0.12529 -13.73257,5.55431 -17.90916,17.85618 -4.08112,12.02065 -4.87364,20.74977 -4.89283,53.89141 -0.0179,31.00667 0.4662,37.80948 3.55846,50 0.55806,2.2 1.42079,4.78139 1.91718,5.73643 0.4964,0.95504 0.90254,2.22396 0.90254,2.81983 0,2.58396 6.20066,9.77227 10.31013,11.95233 4.28078,2.27095 4.69533,2.30953 10.31965,0.96028 9.27968,-2.22616 16.04071,-10.57334 18.80679,-23.21887 L 862.0381,538 h 9.04834 c 8.14972,0 8.99648,0.1738 8.52617,1.75 -0.2872,0.9625 -1.05157,4 -1.6986,6.75 -2.0503,8.71407 -7.37041,18.74421 -12.40239,23.38252 -6.98099,6.43485 -13.8841,9.10078 -24.86626,9.60317 -5.02995,0.2301 -10.04536,0.19072 -11.14536,-0.0875 z M 957.5,578 c -0.33992,-0.55 -1.3365,-1 -2.21463,-1 -4.93795,0 -12.11935,-9.73102 -16.23578,-22 -4.1294,-12.30761 -5.76203,-15.60052 -9.69936,-19.56299 -3.24718,-3.26792 -8.02628,-5.16096 -9.44571,-3.74153 -0.4434,0.4434 -0.94081,10.70581 -1.10535,22.80535 L 918.5,576.5 l -9.25,0.28753 -9.25,0.28752 v -84.97014 c 0,-80.06366 0.10105,-84.99948 1.75,-85.47837 7.05544,-2.04906 21.65942,-2.85469 31.55764,-1.7409 31.85374,3.58434 44.98982,17.24666 49.62631,51.61436 2.66553,19.75811 -0.88919,37.47894 -10.33068,51.5 -5.00435,7.43169 -11.81122,13.15451 -20.10327,16.90165 -2.75,1.24271 -5.50798,2.90967 -6.12885,3.70435 -1.10915,1.41968 0.48821,6.02157 7.85143,22.61949 3.95212,8.90875 9.01586,11.19234 15.00296,6.76588 l 3.05496,-2.25863 4.85975,5.12165 c 2.67286,2.81691 4.85975,5.72974 4.85975,6.47295 0,1.84177 -5.58128,6.68772 -10.85247,9.42266 -4.49473,2.33208 -12.52424,3.06752 -13.64753,1.25 z m -22.76435,-66.13364 c 9.223,-2.19455 13.60292,-4.36945 18.86245,-9.36636 4.33709,-4.12053 8.4019,-10.43116 8.4019,-13.04399 0,-0.81573 0.40246,-2.26454 0.89434,-3.21958 2.13525,-4.14573 3.13676,-16.41445 2.04789,-25.08712 -1.72907,-13.77182 -4.83482,-22.22322 -10.28531,-27.9886 -6.12851,-6.48256 -18.12335,-10.59179 -29.15692,-9.98868 l -6,0.32797 -0.26092,43.5 c -0.14351,23.925 -0.0451,44.0625 0.21861,44.75 0.60762,1.58385 8.84681,1.6466 15.27796,0.11636 z m 61.71743,56.41258 c -1.09497,-13.1449 0.16564,-106.6441 1.53403,-113.77894 3.49989,-18.2486 4.19799,-20.69876 8.40549,-29.5 3.6199,-7.57209 10.179,-14.41614 16.587,-17.3077 3.6041,-1.62632 6.6487,-2.04681 15.0204,-2.07443 8.7262,-0.0288 10.722,0.19116 14.6036,2.10832 0.325,0.16052 0.6632,0.33293 1.0197,0.51809 8.4781,4.40354 14.7448,12.97784 19.9203,27.25572 4.4216,12.19814 6.2554,41.3199 6.3756,101.25 L 1080,577 h -9.5 -9.5 v -20.98095 c 0,-20.92772 -0.01,-20.98235 -2.25,-21.53321 -1.2375,-0.30375 -11.475,-0.42482 -22.75,-0.26905 l -20.5,0.28321 -0.2699,21.25 -0.2699,21.25 h -8.8903 -8.89036 z M 1060.8271,496 c 0.4574,-28.66296 -1.9924,-50.53983 -6.9501,-62.06437 -3.6556,-8.49758 -11.9956,-13.94704 -18.9929,-12.41018 -4.289,0.94202 -10.5599,6.87794 -13.0828,12.38393 -4.8104,10.49825 -5.9276,19.56578 -6.4642,52.46632 -0.25,15.33163 -0.214,28.50277 0.08,29.26919 0.4394,1.14499 4.5071,1.34549 22.8088,1.12431 L 1060.5,516.5 Z M 1102,492.5 V 408 h 40.8916 40.8916 l 0.6485,2.58405 c 0.3567,1.42123 0.3474,5.24623 -0.021,8.5 L 1183.7417,425 h -30.1797 c -22.5679,0 -30.6097,0.31527 -31.8846,1.25 -1.5634,1.14631 -1.683,4.44352 -1.4411,39.75 l 0.2637,38.5 27.75,0.26582 27.75,0.26582 V 514.01582 523 h -26.8 c -19.5111,0 -27.1264,0.32637 -28,1.2 -0.8713,0.87132 -1.2,8.26667 -1.2,27 V 577 h -9 -9 z m 123,9.03518 v -75.46481 l -2.1142,-1.13151 c -1.475,-0.7894 -6.1955,-0.91292 -15.6128,-0.40854 -10.9609,0.58706 -13.6623,0.46418 -14.3704,-0.65367 -0.4796,-0.75716 -0.8784,-4.75165 -0.8862,-8.87665 l -0.014,-7.5 41.7489,0.10489 41.7489,0.10489 0.3034,6.36426 c 0.5523,11.58493 1.5303,10.92596 -16.2155,10.92596 -13.0965,0 -15.4638,0.23432 -15.9809,1.58179 -0.3339,0.86998 -0.607,35.06998 -0.607,76 V 577 h -9 -9 z M 812.5,356.92779 c -3.85,-0.50508 -8.8,-1.26558 -11,-1.69 l -4,-0.77167 -0.25398,-121.07168 -0.25399,-121.07169 3.75399,-1.11044 c 11.44505,-3.38547 52.94607,-3.53816 66.25398,-0.24376 15.30229,3.78812 21.8078,7.31815 30.24938,16.41398 12.18978,13.13453 18.79398,36.46487 18.71609,66.11747 -0.0354,13.47585 -2.30128,30.63598 -5.14971,39 -3.00075,8.81132 -10.23929,20.7615 -15.71076,25.93709 -4.02235,3.80484 -3.91805,5.67024 0.44851,8.02179 5.38973,2.90256 13.48755,11.3797 15.74457,16.48208 5.15625,11.65656 6.1973,26.20297 2.76238,38.59829 -3.1994,11.54545 -6.1604,16.02352 -14.46429,21.87506 -8.35514,5.88767 -18.85021,9.32825 -38.09617,12.48901 -8.69073,1.42728 -40.81074,2.09883 -49,1.02447 z m 46,-26.45492 c 13.61392,-2.31775 18.41402,-4.32157 24.25,-10.12327 5.58671,-5.5539 5.90981,-6.6 5.3587,-17.3496 -0.51049,-9.95711 -6.89397,-16.57168 -19.82866,-20.54648 -13.87589,-4.26403 -42.41857,-6.14086 -43.67305,-2.87173 -0.33385,0.86998 -0.60699,12.70498 -0.60699,26.3 0,18.42508 0.31824,25.04416 1.25,25.99849 1.51018,1.54678 20.65855,0.73626 33.25,-1.40741 z m -11.49963,-79.90062 c 3.5748,-0.78527 7.85377,-1.84778 9.50884,-2.36114 13.34741,-4.14005 24.40971,-15.52211 28.39047,-29.21111 0.71973,-2.475 1.71174,-5.53367 2.20446,-6.79705 1.18644,-3.04213 1.15601,-38.70396 -0.0364,-42.63195 -0.51273,-1.68905 -1.5152,-5.096 -2.22771,-7.571 -3.97814,-13.81865 -14.5666,-23.20024 -30.34005,-26.88192 -2.75,-0.64188 -10.29985,-1.26853 -16.77744,-1.39257 -9.55212,-0.1829 -11.95831,0.0579 -12.73469,1.27449 -1.50654,2.36075 -1.30152,114.28635 0.21213,115.8 1.65301,1.65301 13.81701,1.52593 21.80037,-0.22775 z M 965.70946,322.25 c -0.23247,-21.40534 -0.75358,-33.21617 -1.5994,-36.25 -0.69001,-2.475 -1.49678,-5.96667 -1.7928,-7.75927 -0.29603,-1.7926 -0.93852,-3.50665 -1.42775,-3.80902 C 960.40028,274.12935 960,272.55242 960,270.92741 c 0,-1.625 -0.40117,-3.73594 -0.8915,-4.69098 -0.49032,-0.95504 -1.88005,-6.01143 -3.08829,-11.23643 -1.20824,-5.225 -2.59694,-10.85 -3.08599,-12.5 -0.48905,-1.65 -3.86197,-15.15 -7.49539,-30 -3.63342,-14.85 -6.98806,-28.35 -7.45476,-30 -0.4667,-1.65 -1.29191,-4.8 -1.8338,-7 -3.04397,-12.35811 -6.37771,-25.27312 -8.26013,-32 -1.37378,-4.90922 -4.02731,-15.71098 -4.91315,-20 -0.45438,-2.2 -1.2627,-5.6875 -1.79626,-7.75 L 920.21062,112 h 13.70612 13.70611 l 1.71771,7.75 c 1.76003,7.94093 7.10509,32.1956 8.86999,40.25 0.54233,2.475 1.41643,6.3 1.94243,8.5 0.52601,2.2 1.38177,5.9125 1.9017,8.25 0.51993,2.3375 1.39532,6.275 1.94532,8.75 l 2,9 2,9 2,9 2,9 c 0.55,2.475 1.47498,6.6375 2.05551,9.25 0.58052,2.6125 1.27742,6.325 1.54865,8.25 0.96456,6.84572 1.42829,8 3.214,8 2.27188,0 3.2308,-2.821 7.13834,-21 3.42394,-15.92919 4.00113,-18.51322 6.92435,-31 1.09444,-4.675 2.26412,-9.85 2.59928,-11.5 0.33516,-1.65 0.99501,-4.575 1.46632,-6.5 1.04926,-4.28547 2.84904,-12.05563 4.11135,-17.75 2.3499,-10.59983 2.8925,-13.00019 3.7867,-16.75 0.5246,-2.2 1.4301,-6.25 2.0123,-9 0.5822,-2.75 1.6965,-7.475 2.4763,-10.5 0.7797,-3.025 1.7074,-6.7375 2.0614,-8.25 l 0.6436,-2.75 h 14.1034 c 11.1477,0 13.8945,0.26197 13.1066,1.25 -0.5483,0.6875 -1.2507,2.6 -1.5609,4.25 -0.3103,1.65 -1.0213,4.8 -1.58,7 -0.5587,2.2 -1.4454,5.8 -1.9705,8 -0.5251,2.2 -2.5632,10.3 -4.5293,18 -3.1182,12.21262 -9.959,39.56781 -12.6912,50.75 -1.1021,4.51068 -2.5744,10.40694 -3.8705,15.5 -0.5248,2.0625 -1.4454,5.775 -2.0457,8.25 -1.7045,7.02782 -2.7727,11.16711 -4,15.5 -0.6231,2.2 -1.5736,5.8 -2.1122,8 -0.5386,2.2 -1.4087,5.6875 -1.9335,7.75 -1.4544,5.71506 -2.8578,11.35033 -3.86011,15.5 -0.4982,2.0625 -2.0732,8.1952 -3.5,13.62822 C 993.08503,294.93267 993,296.21918 993,324.62822 V 354 h -13.47286 -13.47286 z m 128.98484,31.11101 C 1094.3125,352.97912 1094,304.41481 1094,245.44032 c 0,-99.33561 -0.1232,-107.27361 -1.6737,-107.8686 -0.9205,-0.35324 -10.933,-0.59064 -22.25,-0.52755 L 1049.5,137.15888 1049.2201,124.57944 1048.9402,112 H 1161.9701 1275 l 10e-5,12.75 10e-5,12.75 -74.2501,-0.27874 c -40.8375,-0.15331 -75.2606,-0.0327 -76.4956,0.26793 l -2.2455,0.54666 -0.2545,107.73208 L 1121.5,353.5 l -13.0557,0.27767 c -7.1806,0.15272 -13.3681,-0.0348 -13.75,-0.41666 z m 61.8909,-0.22312 c -0.293,-0.47415 -0.4321,-40.86165 -0.309,-89.75 L 1156.5,174.5 l 59,-0.58059 c 32.45,-0.31932 59.3385,-0.29583 59.7522,0.0522 0.4137,0.34803 0.457,6.12179 0.096,12.83058 L 1274.6926,199 h -43.7645 c -24.0705,0 -44.4763,0.27314 -45.3463,0.60699 -1.3986,0.53667 -1.5818,4.463 -1.5818,33.89301 0,29.43001 0.1832,33.35634 1.5818,33.89301 0.87,0.33385 18.87,0.60699 40,0.60699 H 1264 v 12.48853 12.48852 l -39.75,0.26148 -39.75,0.26147 -0.275,16.92555 c -0.2091,12.87126 0.031,17.11936 1,17.73469 0.7013,0.44502 21.161,0.81603 45.4662,0.82445 l 44.1912,0.0153 0.3088,12.08708 c 0.1698,6.64789 0.1213,12.27289 -0.1079,12.5 -0.8378,0.83028 -117.9818,0.38623 -118.4981,-0.44919 z"
         id="path12839"
         sodipodi:nodetypes="sssssscccsssssssssscsssssssssssscccssssssssscssssssssssscsssssssssssscccscscccccsssssssscsccccsccssscccccsssccccccsssscccssssccccsscccsssssssssssssssssssssssssssssssssssssssssssssscccssssscccssssssssssssscssssssssssssssscccssssscccccccsscccsssscssccssssscccccscscssss" />
    </g>
  </g>
</svg>
