<svg width="38" height="54" viewBox="0 0 38 54" fill="none" xmlns="http://www.w3.org/2000/svg">
<path fill-rule="evenodd" clip-rule="evenodd" d="M37.6667 45.6667V8.33337C37.6667 3.9151 34.085 0.333374 29.6667 0.333374H8.33337C3.9151 0.333374 0.333374 3.9151 0.333374 8.33337V45.6667C0.333374 50.085 3.9151 53.6667 8.33337 53.6667H29.6667C34.085 53.6667 37.6667 50.085 37.6667 45.6667ZM20.8934 44.8934C21.65 44.1265 21.871 42.9798 21.4534 41.9867C21.3239 41.6447 21.1342 41.3286 20.8934 41.0534C20.7667 40.9387 20.6331 40.8318 20.4934 40.7334C20.3447 40.6325 20.1833 40.5517 20.0134 40.4934L19.5334 40.3334C18.6457 40.1632 17.7323 40.4543 17.1067 41.1067C16.8639 41.3603 16.6736 41.6594 16.5467 41.9867C16.1502 42.9773 16.3823 44.1088 17.1368 44.8633C17.8913 45.6178 19.0228 45.8499 20.0134 45.4534C20.3365 45.3183 20.6342 45.1289 20.8934 44.8934ZM32.3334 8.33337C32.3334 6.86061 31.1395 5.66671 29.6667 5.66671H8.33337C6.86061 5.66671 5.66671 6.86061 5.66671 8.33337V45.6667C5.66671 47.1395 6.86061 48.3334 8.33337 48.3334H29.6667C31.1395 48.3334 32.3334 47.1395 32.3334 45.6667V8.33337ZM16.3334 8.33337H21.9867H22.04C23.5128 8.33337 24.7067 9.52728 24.7067 11C24.7067 12.4728 23.5128 13.6667 22.04 13.6667H16.3334C14.8606 13.6667 13.6667 12.4728 13.6667 11C13.6667 9.52728 14.8606 8.33337 16.3334 8.33337Z" fill="#231F20"/>
</svg>
